<svg version="1.1" style="font-family:&quot;Lucida Grande&quot;, &quot;Lucida Sans Unicode&quot;, Arial, Helvetica, sans-serif;font-size:12px;" xmlns="http://www.w3.org/2000/svg" width="1049" height="380"><desc>Created with Highcharts 4.0.4</desc><defs><clipPath id="highcharts-11"><rect x="0" y="0" width="1029" height="318"></rect></clipPath></defs><rect x="0" y="0" width="1049" height="380" strokeWidth="0" fill="#FFFFFF" class=" highcharts-background"></rect><path fill="rgba(247,163,92,0.25)" d="M 0 0"></path><g class="highcharts-series-group" zIndex="3"><g class="highcharts-series highcharts-tracker" visibility="visible" zIndex="0.1" transform="translate(10,47) scale(1 1)" style="cursor:pointer;"><path fill="#7cb5ec" d="M 514.4727077907048 40.00000277934589 A 134 134 0 1 1 383.10737154669823 200.30545928381792 L 514.5 174 A 0 0 0 1 0 514.5 174 Z" stroke="#FFFFFF" stroke-width="1" stroke-linejoin="round" transform="translate(8,6)"></path><path fill="#434348" d="M 383.0811317881074 200.17405352453486 A 134 134 0 0 1 390.6340063038958 122.88037944510275 L 514.5 174 A 0 0 0 0 0 514.5 174 Z" stroke="#FFFFFF" stroke-width="1" stroke-linejoin="round" transform="translate(0,0)"></path><path fill="#90ed7d" d="M 390.68518784892245 122.75653903185913 A 134 134 0 0 1 419.6538556493781 79.34162001269519 L 514.5 174 A 0 0 0 0 0 514.5 174 Z" stroke="#FFFFFF" stroke-width="1" stroke-linejoin="round" transform="translate(0,0)"></path><path fill="#f7a35c" d="M 419.7485614366572 79.24682121333832 A 134 134 0 0 1 463.1350229144592 50.23554981739761 L 514.5 174 A 0 0 0 0 0 514.5 174 Z" stroke="#FFFFFF" stroke-width="1" stroke-linejoin="round" transform="translate(0,0)"></path><path fill="#8085e9" d="M 463.25881302650083 50.18424673109281 A 134 134 0 0 1 514.3138766882984 40.00012926083531 L 514.5 174 A 0 0 0 0 0 514.5 174 Z" stroke="#FFFFFF" stroke-width="1" stroke-linejoin="round" transform="translate(0,0)"></path></g><g class="highcharts-markers" visibility="visible" zIndex="0.1" transform="translate(10,47) scale(1 1)"></g></g><text x="525" text-anchor="middle" class="highcharts-title" zIndex="4" style="color:#333333;font-size:18px;font-family:DejaVuSans;fill:#333333;width:985px;" y="25"><tspan>Thống kê câu trả lời theo chủ đề</tspan></text><g class="highcharts-data-labels highcharts-tracker" visibility="visible" zIndex="6" transform="translate(10,47) scale(1 1)" opacity="1" style="cursor:pointer;"><path fill="none" d="M 646.2737143514889 278.04049860283783 C 641.2737143514889 278.04049860283783 635.089630724587 272.9653523295287 626.5865157375969 265.9870262037286 L 618.0834007506068 259.0087000779285" stroke="#7cb5ec" stroke-width="1"></path><path fill="none" d="M 346.2897048257597 157.92518898595205 C 351.2897048257597 157.92518898595205 359.2511826391373 158.70932610858853 370.19821463253146 159.7875146522137 L 381.1452466259256 160.86570319583888" stroke="#434348" stroke-width="1"></path><path fill="none" d="M 373.1389835823826 82.88648178478523 C 378.1389835823826 82.88648178478523 384.7907404808029 87.33104364894206 393.9369062161309 93.44231621215768 L 403.0830719514589 99.5535887753733" stroke="#90ed7d" stroke-width="1"></path><path fill="none" d="M 418.3864817847852 37.63898358238258 C 423.3864817847852 37.63898358238258 427.8310436489421 44.29074048080294 433.9423162121577 53.436906216130936 L 440.0535887753733 62.58307195145893" stroke="#f7a35c" stroke-width="1"></path><path fill="none" d="M 477.50518718935484 10 C 482.50518718935484 10 484.065909765484 20.99749625709606 486.2119033076614 31.786134341531593 L 488.35789684983877 42.574772425967126" stroke="#8085e9" stroke-width="1"></path><g zIndex="1" style="cursor:pointer;" transform="translate(651,268)"><text x="3" zIndex="1" style="font-size:12px;font-family:DejaVuSans;color:black;fill:black;" y="16"><tspan style="font-weight:bold">PHP Basic</tspan><tspan dx="0">: 71.9 %</tspan></text></g><g zIndex="1" style="cursor:pointer;" transform="translate(184,148)"><text x="3" zIndex="1" style="font-size:12px;font-family:DejaVuSans;color:black;fill:black;" y="16"><tspan style="font-weight:bold">PHP Framework</tspan><tspan dx="0">: 9.4 %</tspan></text></g><g zIndex="1" style="cursor:pointer;" transform="translate(205,73)"><text x="3" zIndex="1" style="font-size:12px;font-family:DejaVuSans;color:black;fill:black;" y="16"><tspan style="font-weight:bold">Zend Framework</tspan><tspan dx="0">: 6.3 %</tspan></text></g><g zIndex="1" style="cursor:pointer;" transform="translate(268,28)"><text x="3" zIndex="1" style="font-size:12px;font-family:DejaVuSans;color:black;fill:black;" y="16"><tspan style="font-weight:bold">HTML Căn bản</tspan><tspan dx="0">: 6.3 %</tspan></text></g><g zIndex="1" style="cursor:pointer;" transform="translate(389,0)"><text x="3" zIndex="1" style="font-size:12px;font-family:DejaVuSans;color:black;fill:black;" y="16"><tspan style="font-weight:bold">CSS3</tspan><tspan dx="0">: 6.3 %</tspan></text></g></g><g class="highcharts-legend" zIndex="7"><g zIndex="1"><g></g></g></g><g class="highcharts-tooltip" zIndex="8" style="cursor:default;padding:0;white-space:nowrap;" transform="translate(229,-9999)" opacity="0" visibility="visible"><path fill="none" d="M 3.5 0.5 L 228.5 0.5 C 231.5 0.5 231.5 0.5 231.5 3.5 L 231.5 42.5 C 231.5 45.5 231.5 45.5 228.5 45.5 L 3.5 45.5 C 0.5 45.5 0.5 45.5 0.5 42.5 L 0.5 3.5 C 0.5 0.5 0.5 0.5 3.5 0.5" isShadow="true" stroke="black" stroke-opacity="0.049999999999999996" stroke-width="5" transform="translate(1, 1)" width="231" height="45"></path><path fill="none" d="M 3.5 0.5 L 228.5 0.5 C 231.5 0.5 231.5 0.5 231.5 3.5 L 231.5 42.5 C 231.5 45.5 231.5 45.5 228.5 45.5 L 3.5 45.5 C 0.5 45.5 0.5 45.5 0.5 42.5 L 0.5 3.5 C 0.5 0.5 0.5 0.5 3.5 0.5" isShadow="true" stroke="black" stroke-opacity="0.09999999999999999" stroke-width="3" transform="translate(1, 1)" width="231" height="45"></path><path fill="none" d="M 3.5 0.5 L 228.5 0.5 C 231.5 0.5 231.5 0.5 231.5 3.5 L 231.5 42.5 C 231.5 45.5 231.5 45.5 228.5 45.5 L 3.5 45.5 C 0.5 45.5 0.5 45.5 0.5 42.5 L 0.5 3.5 C 0.5 0.5 0.5 0.5 3.5 0.5" isShadow="true" stroke="black" stroke-opacity="0.15" stroke-width="1" transform="translate(1, 1)" width="231" height="45"></path><path fill="rgba(249, 249, 249, .85)" d="M 3.5 0.5 L 228.5 0.5 C 231.5 0.5 231.5 0.5 231.5 3.5 L 231.5 42.5 C 231.5 45.5 231.5 45.5 228.5 45.5 L 3.5 45.5 C 0.5 45.5 0.5 45.5 0.5 42.5 L 0.5 3.5 C 0.5 0.5 0.5 0.5 3.5 0.5" stroke="#f7a35c" stroke-width="1"></path><text x="8" zIndex="1" style="font-size:12px;color:#333333;fill:#333333;" y="21"><tspan style="font-size: 10px">HTML Căn bản</tspan><tspan x="8" dy="16">Các câu trả lời thuộc chủ đề: </tspan><tspan style="font-weight:bold" dx="0">6.3%</tspan></text></g></svg>