<svg version="1.1" style="font-family:&quot;Lucida Grande&quot;, &quot;Lucida Sans Unicode&quot;, Arial, Helvetica, sans-serif;font-size:12px;" xmlns="http://www.w3.org/2000/svg" width="1049" height="380"><desc>Created with Highcharts 4.0.4</desc><defs><clipPath id="highcharts-11"><rect x="0" y="0" width="826" height="297"></rect></clipPath></defs><rect x="0" y="0" width="1049" height="380" strokeWidth="0" fill="#FFFFFF" class=" highcharts-background"></rect><path fill="none" d="M 62 285.5 L 888 285.5" stroke="#808080" stroke-width="1"></path><g class="highcharts-grid" zIndex="1"></g><g class="highcharts-grid" zIndex="1"><path fill="none" d="M 62 46.5 L 888 46.5" stroke="#C0C0C0" stroke-width="1" zIndex="1" opacity="1"></path><path fill="none" d="M 62 106.5 L 888 106.5" stroke="#C0C0C0" stroke-width="1" zIndex="1" opacity="1"></path><path fill="none" d="M 62 166.5 L 888 166.5" stroke="#C0C0C0" stroke-width="1" zIndex="1" opacity="1"></path><path fill="none" d="M 62 225.5 L 888 225.5" stroke="#C0C0C0" stroke-width="1" zIndex="1" opacity="1"></path><path fill="none" d="M 62 285.5 L 888 285.5" stroke="#C0C0C0" stroke-width="1" zIndex="1" opacity="1"></path><path fill="none" d="M 62 344.5 L 888 344.5" stroke="#C0C0C0" stroke-width="1" zIndex="1" opacity="1"></path></g><g class="highcharts-axis" zIndex="2"><path fill="none" d="M 158.5 344 L 158.5 354" stroke="#C0D0E0" stroke-width="1" opacity="1"></path><path fill="none" d="M 207.5 344 L 207.5 354" stroke="#C0D0E0" stroke-width="1" opacity="1"></path><path fill="none" d="M 255.5 344 L 255.5 354" stroke="#C0D0E0" stroke-width="1" opacity="1"></path><path fill="none" d="M 304.5 344 L 304.5 354" stroke="#C0D0E0" stroke-width="1" opacity="1"></path><path fill="none" d="M 353.5 344 L 353.5 354" stroke="#C0D0E0" stroke-width="1" opacity="1"></path><path fill="none" d="M 401.5 344 L 401.5 354" stroke="#C0D0E0" stroke-width="1" opacity="1"></path><path fill="none" d="M 450.5 344 L 450.5 354" stroke="#C0D0E0" stroke-width="1" opacity="1"></path><path fill="none" d="M 498.5 344 L 498.5 354" stroke="#C0D0E0" stroke-width="1" opacity="1"></path><path fill="none" d="M 547.5 344 L 547.5 354" stroke="#C0D0E0" stroke-width="1" opacity="1"></path><path fill="none" d="M 595.5 344 L 595.5 354" stroke="#C0D0E0" stroke-width="1" opacity="1"></path><path fill="none" d="M 644.5 344 L 644.5 354" stroke="#C0D0E0" stroke-width="1" opacity="1"></path><path fill="none" d="M 693.5 344 L 693.5 354" stroke="#C0D0E0" stroke-width="1" opacity="1"></path><path fill="none" d="M 741.5 344 L 741.5 354" stroke="#C0D0E0" stroke-width="1" opacity="1"></path><path fill="none" d="M 790.5 344 L 790.5 354" stroke="#C0D0E0" stroke-width="1" opacity="1"></path><path fill="none" d="M 838.5 344 L 838.5 354" stroke="#C0D0E0" stroke-width="1" opacity="1"></path><path fill="none" d="M 887.5 344 L 887.5 354" stroke="#C0D0E0" stroke-width="1" opacity="1"></path><path fill="none" d="M 110.5 344 L 110.5 354" stroke="#C0D0E0" stroke-width="1" opacity="1"></path><path fill="none" d="M 61.5 344 L 61.5 354" stroke="#C0D0E0" stroke-width="1" opacity="1"></path><path fill="none" d="M 62 344.5 L 888 344.5" stroke="#C0D0E0" stroke-width="1" zIndex="7" visibility="visible"></path></g><g class="highcharts-axis" zIndex="2"><text x="25" zIndex="7" text-anchor="middle" transform="translate(0,0) rotate(270 25 195.5)" class=" highcharts-yaxis-title" style="color:#707070;font-family:DejaVuSans;font-size:12px;fill:#707070;" visibility="visible" y="195.5"><tspan>Số câu trả lời mới</tspan></text></g><g class="highcharts-series-group" zIndex="3"><g class="highcharts-series" visibility="visible" zIndex="0.1" transform="translate(62,47) scale(1 1)" clip-path="url(#highcharts-11)"><path fill="none" d="M 24.294117647058822 237.6 C 24.294117647058822 237.6 53.4470588235294 237.6 72.88235294117646 237.6 C 92.31764705882352 237.6 102.03529411764706 237.6 121.47058823529412 237.6 C 140.90588235294118 237.6 150.62352941176468 237.6 170.05882352941174 237.6 C 189.4941176470588 237.6 199.21176470588233 237.6 218.6470588235294 237.6 C 238.08235294117648 237.6 247.8 237.6 267.2352941176471 237.6 C 286.67058823529413 237.6 296.38823529411764 237.6 315.8235294117647 237.6 C 335.2588235294118 237.6 344.9764705882353 237.6 364.4117647058824 237.6 C 383.84705882352944 237.6 393.564705882353 237.6 413 237.6 C 432.435294117647 237.6 442.1529411764706 237.6 461.5882352941176 237.6 C 481.0235294117647 237.6 490.7411764705882 59.400000000000006 510.1764705882353 59.400000000000006 C 529.6117647058824 59.400000000000006 539.3294117647058 237.6 558.7647058823529 237.6 C 578.2 237.6 587.9176470588234 237.6 607.3529411764705 237.6 C 626.7882352941176 237.6 636.5058823529411 237.6 655.9411764705882 237.6 C 675.3764705882352 237.6 685.0941176470587 237.6 704.5294117647059 237.6 C 723.9647058823529 237.6 733.6823529411764 237.6 753.1176470588234 237.6 C 772.5529411764704 237.6 801.7058823529411 237.6 801.7058823529411 237.6" stroke="#7cb5ec" stroke-width="2" zIndex="1" stroke-linejoin="round" stroke-linecap="round"></path><path fill="none" d="M 14.294117647058822 237.6 L 24.294117647058822 237.6 C 24.294117647058822 237.6 53.4470588235294 237.6 72.88235294117646 237.6 C 92.31764705882352 237.6 102.03529411764706 237.6 121.47058823529412 237.6 C 140.90588235294118 237.6 150.62352941176468 237.6 170.05882352941174 237.6 C 189.4941176470588 237.6 199.21176470588233 237.6 218.6470588235294 237.6 C 238.08235294117648 237.6 247.8 237.6 267.2352941176471 237.6 C 286.67058823529413 237.6 296.38823529411764 237.6 315.8235294117647 237.6 C 335.2588235294118 237.6 344.9764705882353 237.6 364.4117647058824 237.6 C 383.84705882352944 237.6 393.564705882353 237.6 413 237.6 C 432.435294117647 237.6 442.1529411764706 237.6 461.5882352941176 237.6 C 481.0235294117647 237.6 490.7411764705882 59.400000000000006 510.1764705882353 59.400000000000006 C 529.6117647058824 59.400000000000006 539.3294117647058 237.6 558.7647058823529 237.6 C 578.2 237.6 587.9176470588234 237.6 607.3529411764705 237.6 C 626.7882352941176 237.6 636.5058823529411 237.6 655.9411764705882 237.6 C 675.3764705882352 237.6 685.0941176470587 237.6 704.5294117647059 237.6 C 723.9647058823529 237.6 733.6823529411764 237.6 753.1176470588234 237.6 C 772.5529411764704 237.6 801.7058823529411 237.6 801.7058823529411 237.6 L 811.7058823529411 237.6" stroke-linejoin="round" visibility="visible" stroke="rgba(192,192,192,0.0001)" stroke-width="22" zIndex="2" class=" highcharts-tracker" style=""></path></g><g class="highcharts-markers highcharts-tracker" visibility="visible" zIndex="0.1" transform="translate(62,47) scale(1 1)" clip-path="none" style=""><path fill="#7cb5ec" d="M 801 233.6 C 806.328 233.6 806.328 241.6 801 241.6 C 795.672 241.6 795.672 233.6 801 233.6 Z"></path><path fill="#7cb5ec" d="M 753 233.6 C 758.328 233.6 758.328 241.6 753 241.6 C 747.672 241.6 747.672 233.6 753 233.6 Z"></path><path fill="#7cb5ec" d="M 704 233.6 C 709.328 233.6 709.328 241.6 704 241.6 C 698.672 241.6 698.672 233.6 704 233.6 Z"></path><path fill="#7cb5ec" d="M 655 233.6 C 660.328 233.6 660.328 241.6 655 241.6 C 649.672 241.6 649.672 233.6 655 233.6 Z"></path><path fill="#7cb5ec" d="M 607 233.6 C 612.328 233.6 612.328 241.6 607 241.6 C 601.672 241.6 601.672 233.6 607 233.6 Z"></path><path fill="#7cb5ec" d="M 558 233.6 C 563.328 233.6 563.328 241.6 558 241.6 C 552.672 241.6 552.672 233.6 558 233.6 Z"></path><path fill="#7cb5ec" d="M 510 55.400000000000006 C 515.328 55.400000000000006 515.328 63.400000000000006 510 63.400000000000006 C 504.672 63.400000000000006 504.672 55.400000000000006 510 55.400000000000006 Z"></path><path fill="#7cb5ec" d="M 461 233.6 C 466.328 233.6 466.328 241.6 461 241.6 C 455.672 241.6 455.672 233.6 461 233.6 Z"></path><path fill="#7cb5ec" d="M 413 233.6 C 418.328 233.6 418.328 241.6 413 241.6 C 407.672 241.6 407.672 233.6 413 233.6 Z"></path><path fill="#7cb5ec" d="M 364 233.6 C 369.328 233.6 369.328 241.6 364 241.6 C 358.672 241.6 358.672 233.6 364 233.6 Z"></path><path fill="#7cb5ec" d="M 315 233.6 C 320.328 233.6 320.328 241.6 315 241.6 C 309.672 241.6 309.672 233.6 315 233.6 Z"></path><path fill="#7cb5ec" d="M 267 233.6 C 272.328 233.6 272.328 241.6 267 241.6 C 261.672 241.6 261.672 233.6 267 233.6 Z"></path><path fill="#7cb5ec" d="M 218 233.6 C 223.328 233.6 223.328 241.6 218 241.6 C 212.672 241.6 212.672 233.6 218 233.6 Z"></path><path fill="#7cb5ec" d="M 170 233.6 C 175.328 233.6 175.328 241.6 170 241.6 C 164.672 241.6 164.672 233.6 170 233.6 Z"></path><path fill="#7cb5ec" d="M 121 233.6 C 126.328 233.6 126.328 241.6 121 241.6 C 115.672 241.6 115.672 233.6 121 233.6 Z"></path><path fill="#7cb5ec" d="M 72 233.6 C 77.328 233.6 77.328 241.6 72 241.6 C 66.672 241.6 66.672 233.6 72 233.6 Z"></path><path fill="#7cb5ec" d="M 24 233.6 C 29.328 233.6 29.328 241.6 24 241.6 C 18.672 241.6 18.672 233.6 24 233.6 Z"></path></g><g class="highcharts-series" visibility="visible" zIndex="0.1" transform="translate(62,47) scale(1 1)" clip-path="url(#highcharts-11)"><path fill="none" d="M 24.294117647058822 237.6 C 24.294117647058822 237.6 53.4470588235294 237.6 72.88235294117646 237.6 C 92.31764705882352 237.6 102.03529411764706 237.6 121.47058823529412 237.6 C 140.90588235294118 237.6 150.62352941176468 237.6 170.05882352941174 237.6 C 189.4941176470588 237.6 199.21176470588233 237.6 218.6470588235294 237.6 C 238.08235294117648 237.6 247.8 237.6 267.2352941176471 237.6 C 286.67058823529413 237.6 296.38823529411764 237.6 315.8235294117647 237.6 C 335.2588235294118 237.6 344.9764705882353 237.6 364.4117647058824 237.6 C 383.84705882352944 237.6 393.564705882353 237.6 413 237.6 C 432.435294117647 237.6 442.1529411764706 237.6 461.5882352941176 237.6 C 481.0235294117647 237.6 490.7411764705882 237.6 510.1764705882353 237.6 C 529.6117647058824 237.6 539.3294117647058 237.6 558.7647058823529 237.6 C 578.2 237.6 587.9176470588234 237.6 607.3529411764705 237.6 C 626.7882352941176 237.6 636.5058823529411 237.6 655.9411764705882 237.6 C 675.3764705882352 237.6 685.0941176470587 237.6 704.5294117647059 237.6 C 723.9647058823529 237.6 733.6823529411764 237.6 753.1176470588234 237.6 C 772.5529411764704 237.6 801.7058823529411 237.6 801.7058823529411 237.6" stroke="#434348" stroke-width="2" zIndex="1" stroke-linejoin="round" stroke-linecap="round"></path><path fill="none" d="M 14.294117647058822 237.6 L 24.294117647058822 237.6 C 24.294117647058822 237.6 53.4470588235294 237.6 72.88235294117646 237.6 C 92.31764705882352 237.6 102.03529411764706 237.6 121.47058823529412 237.6 C 140.90588235294118 237.6 150.62352941176468 237.6 170.05882352941174 237.6 C 189.4941176470588 237.6 199.21176470588233 237.6 218.6470588235294 237.6 C 238.08235294117648 237.6 247.8 237.6 267.2352941176471 237.6 C 286.67058823529413 237.6 296.38823529411764 237.6 315.8235294117647 237.6 C 335.2588235294118 237.6 344.9764705882353 237.6 364.4117647058824 237.6 C 383.84705882352944 237.6 393.564705882353 237.6 413 237.6 C 432.435294117647 237.6 442.1529411764706 237.6 461.5882352941176 237.6 C 481.0235294117647 237.6 490.7411764705882 237.6 510.1764705882353 237.6 C 529.6117647058824 237.6 539.3294117647058 237.6 558.7647058823529 237.6 C 578.2 237.6 587.9176470588234 237.6 607.3529411764705 237.6 C 626.7882352941176 237.6 636.5058823529411 237.6 655.9411764705882 237.6 C 675.3764705882352 237.6 685.0941176470587 237.6 704.5294117647059 237.6 C 723.9647058823529 237.6 733.6823529411764 237.6 753.1176470588234 237.6 C 772.5529411764704 237.6 801.7058823529411 237.6 801.7058823529411 237.6 L 811.7058823529411 237.6" stroke-linejoin="round" visibility="visible" stroke="rgba(192,192,192,0.0001)" stroke-width="22" zIndex="2" class=" highcharts-tracker" style=""></path></g><g class="highcharts-markers highcharts-tracker" visibility="visible" zIndex="0.1" transform="translate(62,47) scale(1 1)" clip-path="none" style=""><path fill="#434348" d="M 801 233.6 L 805 237.6 801 241.6 797 237.6 Z"></path><path fill="#434348" d="M 753 233.6 L 757 237.6 753 241.6 749 237.6 Z"></path><path fill="#434348" d="M 704 233.6 L 708 237.6 704 241.6 700 237.6 Z"></path><path fill="#434348" d="M 655 233.6 L 659 237.6 655 241.6 651 237.6 Z"></path><path fill="#434348" d="M 607 233.6 L 611 237.6 607 241.6 603 237.6 Z"></path><path fill="#434348" d="M 558 233.6 L 562 237.6 558 241.6 554 237.6 Z"></path><path fill="#434348" d="M 510 233.6 L 514 237.6 510 241.6 506 237.6 Z"></path><path fill="#434348" d="M 461 233.6 L 465 237.6 461 241.6 457 237.6 Z"></path><path fill="#434348" d="M 413 233.6 L 417 237.6 413 241.6 409 237.6 Z"></path><path fill="#434348" d="M 364 233.6 L 368 237.6 364 241.6 360 237.6 Z"></path><path fill="#434348" d="M 315 233.6 L 319 237.6 315 241.6 311 237.6 Z"></path><path fill="#434348" d="M 267 233.6 L 271 237.6 267 241.6 263 237.6 Z"></path><path fill="#434348" d="M 218 233.6 L 222 237.6 218 241.6 214 237.6 Z"></path><path fill="#434348" d="M 170 233.6 L 174 237.6 170 241.6 166 237.6 Z"></path><path fill="#434348" d="M 121 233.6 L 125 237.6 121 241.6 117 237.6 Z"></path><path fill="#434348" d="M 72 233.6 L 76 237.6 72 241.6 68 237.6 Z"></path><path fill="#434348" d="M 24 233.6 L 28 237.6 24 241.6 20 237.6 Z"></path></g><g class="highcharts-series" visibility="visible" zIndex="0.1" transform="translate(62,47) scale(1 1)" clip-path="url(#highcharts-11)"><path fill="none" d="M 24.294117647058822 237.6 C 24.294117647058822 237.6 53.4470588235294 237.6 72.88235294117646 237.6 C 92.31764705882352 237.6 102.03529411764706 237.6 121.47058823529412 237.6 C 140.90588235294118 237.6 150.62352941176468 237.6 170.05882352941174 237.6 C 189.4941176470588 237.6 199.21176470588233 237.6 218.6470588235294 237.6 C 238.08235294117648 237.6 247.8 237.6 267.2352941176471 237.6 C 286.67058823529413 237.6 296.38823529411764 237.6 315.8235294117647 237.6 C 335.2588235294118 237.6 344.9764705882353 237.6 364.4117647058824 237.6 C 383.84705882352944 237.6 393.564705882353 237.6 413 237.6 C 432.435294117647 237.6 442.1529411764706 237.6 461.5882352941176 237.6 C 481.0235294117647 237.6 490.7411764705882 237.6 510.1764705882353 237.6 C 529.6117647058824 237.6 539.3294117647058 237.6 558.7647058823529 237.6 C 578.2 237.6 587.9176470588234 237.6 607.3529411764705 237.6 C 626.7882352941176 237.6 636.5058823529411 237.6 655.9411764705882 237.6 C 675.3764705882352 237.6 685.0941176470587 237.6 704.5294117647059 237.6 C 723.9647058823529 237.6 733.6823529411764 237.6 753.1176470588234 237.6 C 772.5529411764704 237.6 801.7058823529411 237.6 801.7058823529411 237.6" stroke="#90ed7d" stroke-width="2" zIndex="1" stroke-linejoin="round" stroke-linecap="round"></path><path fill="none" d="M 14.294117647058822 237.6 L 24.294117647058822 237.6 C 24.294117647058822 237.6 53.4470588235294 237.6 72.88235294117646 237.6 C 92.31764705882352 237.6 102.03529411764706 237.6 121.47058823529412 237.6 C 140.90588235294118 237.6 150.62352941176468 237.6 170.05882352941174 237.6 C 189.4941176470588 237.6 199.21176470588233 237.6 218.6470588235294 237.6 C 238.08235294117648 237.6 247.8 237.6 267.2352941176471 237.6 C 286.67058823529413 237.6 296.38823529411764 237.6 315.8235294117647 237.6 C 335.2588235294118 237.6 344.9764705882353 237.6 364.4117647058824 237.6 C 383.84705882352944 237.6 393.564705882353 237.6 413 237.6 C 432.435294117647 237.6 442.1529411764706 237.6 461.5882352941176 237.6 C 481.0235294117647 237.6 490.7411764705882 237.6 510.1764705882353 237.6 C 529.6117647058824 237.6 539.3294117647058 237.6 558.7647058823529 237.6 C 578.2 237.6 587.9176470588234 237.6 607.3529411764705 237.6 C 626.7882352941176 237.6 636.5058823529411 237.6 655.9411764705882 237.6 C 675.3764705882352 237.6 685.0941176470587 237.6 704.5294117647059 237.6 C 723.9647058823529 237.6 733.6823529411764 237.6 753.1176470588234 237.6 C 772.5529411764704 237.6 801.7058823529411 237.6 801.7058823529411 237.6 L 811.7058823529411 237.6" stroke-linejoin="round" visibility="visible" stroke="rgba(192,192,192,0.0001)" stroke-width="22" zIndex="2" class=" highcharts-tracker" style=""></path></g><g class="highcharts-markers highcharts-tracker" visibility="visible" zIndex="0.1" transform="translate(62,47) scale(1 1)" clip-path="none" style=""><path fill="#90ed7d" d="M 797 233.6 L 805 233.6 805 241.6 797 241.6 Z"></path><path fill="#90ed7d" d="M 749 233.6 L 757 233.6 757 241.6 749 241.6 Z"></path><path fill="#90ed7d" d="M 700 233.6 L 708 233.6 708 241.6 700 241.6 Z"></path><path fill="#90ed7d" d="M 651 233.6 L 659 233.6 659 241.6 651 241.6 Z"></path><path fill="#90ed7d" d="M 603 233.6 L 611 233.6 611 241.6 603 241.6 Z"></path><path fill="#90ed7d" d="M 554 233.6 L 562 233.6 562 241.6 554 241.6 Z"></path><path fill="#90ed7d" d="M 506 233.6 L 514 233.6 514 241.6 506 241.6 Z"></path><path fill="#90ed7d" d="M 457 233.6 L 465 233.6 465 241.6 457 241.6 Z"></path><path fill="#90ed7d" d="M 409 233.6 L 417 233.6 417 241.6 409 241.6 Z"></path><path fill="#90ed7d" d="M 360 233.6 L 368 233.6 368 241.6 360 241.6 Z"></path><path fill="#90ed7d" d="M 311 233.6 L 319 233.6 319 241.6 311 241.6 Z"></path><path fill="#90ed7d" d="M 263 233.6 L 271 233.6 271 241.6 263 241.6 Z"></path><path fill="#90ed7d" d="M 214 233.6 L 222 233.6 222 241.6 214 241.6 Z"></path><path fill="#90ed7d" d="M 166 233.6 L 174 233.6 174 241.6 166 241.6 Z"></path><path fill="#90ed7d" d="M 117 233.6 L 125 233.6 125 241.6 117 241.6 Z"></path><path fill="#90ed7d" d="M 68 233.6 L 76 233.6 76 241.6 68 241.6 Z"></path><path fill="#90ed7d" d="M 20 233.6 L 28 233.6 28 241.6 20 241.6 Z"></path></g><g class="highcharts-series" visibility="visible" zIndex="0.1" transform="translate(62,47) scale(1 1)" clip-path="url(#highcharts-11)"><path fill="none" d="M 24.294117647058822 237.6 C 24.294117647058822 237.6 53.4470588235294 237.6 72.88235294117646 237.6 C 92.31764705882352 237.6 102.03529411764706 237.6 121.47058823529412 237.6 C 140.90588235294118 237.6 150.62352941176468 237.6 170.05882352941174 237.6 C 189.4941176470588 237.6 199.21176470588233 237.6 218.6470588235294 237.6 C 238.08235294117648 237.6 247.8 237.6 267.2352941176471 237.6 C 286.67058823529413 237.6 296.38823529411764 237.6 315.8235294117647 237.6 C 335.2588235294118 237.6 344.9764705882353 237.6 364.4117647058824 237.6 C 383.84705882352944 237.6 393.564705882353 237.6 413 237.6 C 432.435294117647 237.6 442.1529411764706 237.6 461.5882352941176 237.6 C 481.0235294117647 237.6 490.7411764705882 237.6 510.1764705882353 237.6 C 529.6117647058824 237.6 539.3294117647058 237.6 558.7647058823529 237.6 C 578.2 237.6 587.9176470588234 237.6 607.3529411764705 237.6 C 626.7882352941176 237.6 636.5058823529411 237.6 655.9411764705882 237.6 C 675.3764705882352 237.6 685.0941176470587 237.6 704.5294117647059 237.6 C 723.9647058823529 237.6 733.6823529411764 237.6 753.1176470588234 237.6 C 772.5529411764704 237.6 801.7058823529411 237.6 801.7058823529411 237.6" stroke="#f7a35c" stroke-width="2" zIndex="1" stroke-linejoin="round" stroke-linecap="round"></path><path fill="none" d="M 14.294117647058822 237.6 L 24.294117647058822 237.6 C 24.294117647058822 237.6 53.4470588235294 237.6 72.88235294117646 237.6 C 92.31764705882352 237.6 102.03529411764706 237.6 121.47058823529412 237.6 C 140.90588235294118 237.6 150.62352941176468 237.6 170.05882352941174 237.6 C 189.4941176470588 237.6 199.21176470588233 237.6 218.6470588235294 237.6 C 238.08235294117648 237.6 247.8 237.6 267.2352941176471 237.6 C 286.67058823529413 237.6 296.38823529411764 237.6 315.8235294117647 237.6 C 335.2588235294118 237.6 344.9764705882353 237.6 364.4117647058824 237.6 C 383.84705882352944 237.6 393.564705882353 237.6 413 237.6 C 432.435294117647 237.6 442.1529411764706 237.6 461.5882352941176 237.6 C 481.0235294117647 237.6 490.7411764705882 237.6 510.1764705882353 237.6 C 529.6117647058824 237.6 539.3294117647058 237.6 558.7647058823529 237.6 C 578.2 237.6 587.9176470588234 237.6 607.3529411764705 237.6 C 626.7882352941176 237.6 636.5058823529411 237.6 655.9411764705882 237.6 C 675.3764705882352 237.6 685.0941176470587 237.6 704.5294117647059 237.6 C 723.9647058823529 237.6 733.6823529411764 237.6 753.1176470588234 237.6 C 772.5529411764704 237.6 801.7058823529411 237.6 801.7058823529411 237.6 L 811.7058823529411 237.6" stroke-linejoin="round" visibility="visible" stroke="rgba(192,192,192,0.0001)" stroke-width="22" zIndex="2" class=" highcharts-tracker" style=""></path></g><g class="highcharts-markers highcharts-tracker" visibility="visible" zIndex="0.1" transform="translate(62,47) scale(1 1)" clip-path="none" style=""><path fill="#f7a35c" d="M 801 233.6 L 805 241.6 797 241.6 Z"></path><path fill="#f7a35c" d="M 753 233.6 L 757 241.6 749 241.6 Z"></path><path fill="#f7a35c" d="M 704 233.6 L 708 241.6 700 241.6 Z"></path><path fill="#f7a35c" d="M 655 233.6 L 659 241.6 651 241.6 Z"></path><path fill="#f7a35c" d="M 607 233.6 L 611 241.6 603 241.6 Z"></path><path fill="#f7a35c" d="M 558 233.6 L 562 241.6 554 241.6 Z"></path><path fill="#f7a35c" d="M 510 233.6 L 514 241.6 506 241.6 Z"></path><path fill="#f7a35c" d="M 461 233.6 L 465 241.6 457 241.6 Z"></path><path fill="#f7a35c" d="M 413 233.6 L 417 241.6 409 241.6 Z"></path><path fill="#f7a35c" d="M 364 233.6 L 368 241.6 360 241.6 Z"></path><path fill="#f7a35c" d="M 315 233.6 L 319 241.6 311 241.6 Z"></path><path fill="#f7a35c" d="M 267 233.6 L 271 241.6 263 241.6 Z"></path><path fill="#f7a35c" d="M 218 233.6 L 222 241.6 214 241.6 Z"></path><path fill="#f7a35c" d="M 170 233.6 L 174 241.6 166 241.6 Z"></path><path fill="#f7a35c" d="M 121 233.6 L 125 241.6 117 241.6 Z"></path><path fill="#f7a35c" d="M 72 233.6 L 76 241.6 68 241.6 Z"></path><path fill="#f7a35c" d="M 24 233.6 L 28 241.6 20 241.6 Z"></path></g><g class="highcharts-series" visibility="visible" zIndex="0.1" transform="translate(62,47) scale(1 1)" clip-path="url(#highcharts-11)"><path fill="none" d="M 24.294117647058822 237.6 C 24.294117647058822 237.6 53.4470588235294 237.6 72.88235294117646 237.6 C 92.31764705882352 237.6 102.03529411764706 237.6 121.47058823529412 237.6 C 140.90588235294118 237.6 150.62352941176468 237.6 170.05882352941174 237.6 C 189.4941176470588 237.6 199.21176470588233 237.6 218.6470588235294 237.6 C 238.08235294117648 237.6 247.8 237.6 267.2352941176471 237.6 C 286.67058823529413 237.6 296.38823529411764 237.6 315.8235294117647 237.6 C 335.2588235294118 237.6 344.9764705882353 237.6 364.4117647058824 237.6 C 383.84705882352944 237.6 393.564705882353 237.6 413 237.6 C 432.435294117647 237.6 442.1529411764706 237.6 461.5882352941176 237.6 C 481.0235294117647 237.6 490.7411764705882 237.6 510.1764705882353 237.6 C 529.6117647058824 237.6 539.3294117647058 237.6 558.7647058823529 237.6 C 578.2 237.6 587.9176470588234 237.6 607.3529411764705 237.6 C 626.7882352941176 237.6 636.5058823529411 237.6 655.9411764705882 237.6 C 675.3764705882352 237.6 685.0941176470587 237.6 704.5294117647059 237.6 C 723.9647058823529 237.6 733.6823529411764 237.6 753.1176470588234 237.6 C 772.5529411764704 237.6 801.7058823529411 237.6 801.7058823529411 237.6" stroke="#8085e9" stroke-width="2" zIndex="1" stroke-linejoin="round" stroke-linecap="round"></path><path fill="none" d="M 14.294117647058822 237.6 L 24.294117647058822 237.6 C 24.294117647058822 237.6 53.4470588235294 237.6 72.88235294117646 237.6 C 92.31764705882352 237.6 102.03529411764706 237.6 121.47058823529412 237.6 C 140.90588235294118 237.6 150.62352941176468 237.6 170.05882352941174 237.6 C 189.4941176470588 237.6 199.21176470588233 237.6 218.6470588235294 237.6 C 238.08235294117648 237.6 247.8 237.6 267.2352941176471 237.6 C 286.67058823529413 237.6 296.38823529411764 237.6 315.8235294117647 237.6 C 335.2588235294118 237.6 344.9764705882353 237.6 364.4117647058824 237.6 C 383.84705882352944 237.6 393.564705882353 237.6 413 237.6 C 432.435294117647 237.6 442.1529411764706 237.6 461.5882352941176 237.6 C 481.0235294117647 237.6 490.7411764705882 237.6 510.1764705882353 237.6 C 529.6117647058824 237.6 539.3294117647058 237.6 558.7647058823529 237.6 C 578.2 237.6 587.9176470588234 237.6 607.3529411764705 237.6 C 626.7882352941176 237.6 636.5058823529411 237.6 655.9411764705882 237.6 C 675.3764705882352 237.6 685.0941176470587 237.6 704.5294117647059 237.6 C 723.9647058823529 237.6 733.6823529411764 237.6 753.1176470588234 237.6 C 772.5529411764704 237.6 801.7058823529411 237.6 801.7058823529411 237.6 L 811.7058823529411 237.6" stroke-linejoin="round" visibility="visible" stroke="rgba(192,192,192,0.0001)" stroke-width="22" zIndex="2" class=" highcharts-tracker" style=""></path></g><g class="highcharts-markers highcharts-tracker" visibility="visible" zIndex="0.1" transform="translate(62,47) scale(1 1)" clip-path="none" style=""><path fill="#8085e9" d="M 797 233.6 L 805 233.6 801 241.6 Z"></path><path fill="#8085e9" d="M 749 233.6 L 757 233.6 753 241.6 Z"></path><path fill="#8085e9" d="M 700 233.6 L 708 233.6 704 241.6 Z"></path><path fill="#8085e9" d="M 651 233.6 L 659 233.6 655 241.6 Z"></path><path fill="#8085e9" d="M 603 233.6 L 611 233.6 607 241.6 Z"></path><path fill="#8085e9" d="M 554 233.6 L 562 233.6 558 241.6 Z"></path><path fill="#8085e9" d="M 506 233.6 L 514 233.6 510 241.6 Z"></path><path fill="#8085e9" d="M 457 233.6 L 465 233.6 461 241.6 Z"></path><path fill="#8085e9" d="M 409 233.6 L 417 233.6 413 241.6 Z"></path><path fill="#8085e9" d="M 360 233.6 L 368 233.6 364 241.6 Z"></path><path fill="#8085e9" d="M 311 233.6 L 319 233.6 315 241.6 Z"></path><path fill="#8085e9" d="M 263 233.6 L 271 233.6 267 241.6 Z"></path><path fill="#8085e9" d="M 214 233.6 L 222 233.6 218 241.6 Z"></path><path fill="#8085e9" d="M 166 233.6 L 174 233.6 170 241.6 Z"></path><path fill="#8085e9" d="M 117 233.6 L 125 233.6 121 241.6 Z"></path><path fill="#8085e9" d="M 68 233.6 L 76 233.6 72 241.6 Z"></path><path fill="#8085e9" d="M 20 233.6 L 28 233.6 24 241.6 Z"></path></g></g><text x="505" text-anchor="middle" class="highcharts-title" zIndex="4" style="color:#333333;font-size:18px;font-family:DejaVuSans;fill:#333333;width:985px;" y="25"><tspan>Thống kê câu trả lời theo ngày</tspan></text><g class="highcharts-legend" zIndex="7" transform="translate(908,150)"><g zIndex="1"><g><g class="highcharts-legend-item" zIndex="1" transform="translate(8,3)"><path fill="none" d="M 0 11 L 16 11" stroke="#7cb5ec" stroke-width="2"></path><path fill="#7cb5ec" d="M 8 7 C 13.328 7 13.328 15 8 15 C 2.6719999999999997 15 2.6719999999999997 7 8 7 Z"></path><text x="21" style="color:#333333;font-size:12px;font-weight:bold;cursor:pointer;font-family:DejaVuSans;fill:#333333;" text-anchor="start" zIndex="2" y="15"><tspan>PHP Basic</tspan></text></g><g class="highcharts-legend-item" zIndex="1" transform="translate(8,18)"><path fill="none" d="M 0 11 L 16 11" stroke="#434348" stroke-width="2"></path><path fill="#434348" d="M 8 7 L 12 11 8 15 4 11 Z"></path><text x="21" y="15" style="color:#333333;font-size:12px;font-weight:bold;cursor:pointer;font-family:DejaVuSans;fill:#333333;" text-anchor="start" zIndex="2"><tspan>PHP Framework</tspan></text></g><g class="highcharts-legend-item" zIndex="1" transform="translate(8,33)"><path fill="none" d="M 0 11 L 16 11" stroke="#90ed7d" stroke-width="2"></path><path fill="#90ed7d" d="M 4 7 L 12 7 12 15 4 15 Z"></path><text x="21" y="15" style="color:#333333;font-size:12px;font-weight:bold;cursor:pointer;font-family:DejaVuSans;fill:#333333;" text-anchor="start" zIndex="2"><tspan>Zend Framework</tspan></text></g><g class="highcharts-legend-item" zIndex="1" transform="translate(8,48)"><path fill="none" d="M 0 11 L 16 11" stroke="#f7a35c" stroke-width="2"></path><path fill="#f7a35c" d="M 8 7 L 12 15 4 15 Z"></path><text x="21" y="15" style="color:#333333;font-size:12px;font-weight:bold;cursor:pointer;font-family:DejaVuSans;fill:#333333;" text-anchor="start" zIndex="2"><tspan>HTML Căn bản</tspan></text></g><g class="highcharts-legend-item" zIndex="1" transform="translate(8,63)"><path fill="none" d="M 0 11 L 16 11" stroke="#8085e9" stroke-width="2"></path><path fill="#8085e9" d="M 4 7 L 12 7 8 15 Z"></path><text x="21" y="15" style="color:#333333;font-size:12px;font-weight:bold;cursor:pointer;font-family:DejaVuSans;fill:#333333;" text-anchor="start" zIndex="2">CSS3</text></g></g></g></g><g class="highcharts-axis-labels highcharts-xaxis-labels" zIndex="7"><text x="86.29411764705883" text-anchor="middle" style="width:28px;color:#606060;cursor:default;font-size:11px;fill:#606060;" y="364" opacity="1">21-Feb</text><text x="134.8823529411765" text-anchor="middle" style="width:28px;color:#606060;cursor:default;font-size:11px;fill:#606060;" y="364" opacity="1">22-Feb</text><text x="183.47058823529412" text-anchor="middle" style="width:28px;color:#606060;cursor:default;font-size:11px;fill:#606060;" y="364" opacity="1">23-Feb</text><text x="232.0588235294118" text-anchor="middle" style="width:28px;color:#606060;cursor:default;font-size:11px;fill:#606060;" y="364" opacity="1">24-Feb</text><text x="280.64705882352933" text-anchor="middle" style="width:28px;color:#606060;cursor:default;font-size:11px;fill:#606060;" y="364" opacity="1">25-Feb</text><text x="329.2352941176471" text-anchor="middle" style="width:28px;color:#606060;cursor:default;font-size:11px;fill:#606060;" y="364" opacity="1">26-Feb</text><text x="377.8235294117647" text-anchor="middle" style="width:28px;color:#606060;cursor:default;font-size:11px;fill:#606060;" y="364" opacity="1">27-Feb</text><text x="426.4117647058823" text-anchor="middle" style="width:28px;color:#606060;cursor:default;font-size:11px;fill:#606060;" y="364" opacity="1">28-Feb</text><text x="475" text-anchor="middle" style="width:28px;color:#606060;cursor:default;font-size:11px;fill:#606060;" y="364" opacity="1">01-Mar</text><text x="523.5882352941177" text-anchor="middle" style="width:28px;color:#606060;cursor:default;font-size:11px;fill:#606060;" y="364" opacity="1">02-Mar</text><text x="572.1764705882352" text-anchor="middle" style="width:28px;color:#606060;cursor:default;font-size:11px;fill:#606060;" y="364" opacity="1">03-Mar</text><text x="620.7647058823529" text-anchor="middle" style="width:28px;color:#606060;cursor:default;font-size:11px;fill:#606060;" y="364" opacity="1">04-Mar</text><text x="669.3529411764706" text-anchor="middle" style="width:28px;color:#606060;cursor:default;font-size:11px;fill:#606060;" y="364" opacity="1">05-Mar</text><text x="717.9411764705882" text-anchor="middle" style="width:28px;color:#606060;cursor:default;font-size:11px;fill:#606060;" y="364" opacity="1">06-Mar</text><text x="766.5294117647059" text-anchor="middle" style="width:28px;color:#606060;cursor:default;font-size:11px;fill:#606060;" y="364" opacity="1">07-Mar</text><text x="815.1176470588235" text-anchor="middle" style="width:28px;color:#606060;cursor:default;font-size:11px;fill:#606060;" y="364" opacity="1">08-Mar</text><text x="863.7058823529411" text-anchor="middle" style="width:28px;color:#606060;cursor:default;font-size:11px;fill:#606060;" y="364" opacity="1">09-Mar</text></g><g class="highcharts-axis-labels highcharts-yaxis-labels" zIndex="7"><text x="47" text-anchor="end" style="width:326px;color:#606060;cursor:default;font-size:11px;fill:#606060;" y="289.85" opacity="1">0</text><text x="47" text-anchor="end" style="width:326px;color:#606060;cursor:default;font-size:11px;fill:#606060;" y="230.45" opacity="1">1</text><text x="47" text-anchor="end" style="width:326px;color:#606060;cursor:default;font-size:11px;fill:#606060;" y="171.05" opacity="1">2</text><text x="47" text-anchor="end" style="width:326px;color:#606060;cursor:default;font-size:11px;fill:#606060;" y="111.65" opacity="1">3</text><text x="47" text-anchor="end" style="width:326px;color:#606060;cursor:default;font-size:11px;fill:#606060;" y="349.25" opacity="1">-1</text><text x="47" text-anchor="end" style="width:326px;color:#606060;cursor:default;font-size:11px;fill:#606060;" y="52.25" opacity="1">4</text></g><g class="highcharts-tooltip" zIndex="8" style="cursor:default;padding:0;white-space:nowrap;" transform="translate(0,-9999)"><path fill="none" d="M 3 0 L 13 0 C 16 0 16 0 16 3 L 16 13 C 16 16 16 16 13 16 L 3 16 C 0 16 0 16 0 13 L 0 3 C 0 0 0 0 3 0" isShadow="true" stroke="black" stroke-opacity="0.049999999999999996" stroke-width="5" transform="translate(1, 1)"></path><path fill="none" d="M 3 0 L 13 0 C 16 0 16 0 16 3 L 16 13 C 16 16 16 16 13 16 L 3 16 C 0 16 0 16 0 13 L 0 3 C 0 0 0 0 3 0" isShadow="true" stroke="black" stroke-opacity="0.09999999999999999" stroke-width="3" transform="translate(1, 1)"></path><path fill="none" d="M 3 0 L 13 0 C 16 0 16 0 16 3 L 16 13 C 16 16 16 16 13 16 L 3 16 C 0 16 0 16 0 13 L 0 3 C 0 0 0 0 3 0" isShadow="true" stroke="black" stroke-opacity="0.15" stroke-width="1" transform="translate(1, 1)"></path><path fill="rgba(249, 249, 249, .85)" d="M 3 0 L 13 0 C 16 0 16 0 16 3 L 16 13 C 16 16 16 16 13 16 L 3 16 C 0 16 0 16 0 13 L 0 3 C 0 0 0 0 3 0"></path><text x="8" zIndex="1" style="font-size:12px;color:#333333;fill:#333333;" y="21"></text></g></svg>