<svg version="1.1" style="font-family:&quot;Lucida Grande&quot;, &quot;Lucida Sans Unicode&quot;, Arial, Helvetica, sans-serif;font-size:12px;" xmlns="http://www.w3.org/2000/svg" width="1015" height="380"><desc>Created with Highcharts 4.0.4</desc><defs><clipPath id="highcharts-15"><rect x="0" y="0" width="949" height="260"></rect></clipPath></defs><rect x="0" y="0" width="1015" height="380" strokeWidth="0" fill="#FFFFFF" class=" highcharts-background"></rect><g class="highcharts-grid" zIndex="1"></g><g class="highcharts-grid" zIndex="1"><path fill="none" d="M 56 45.5 L 1005 45.5" stroke="#C0C0C0" stroke-width="1" zIndex="1" opacity="1"></path><path fill="none" d="M 56 111.5 L 1005 111.5" stroke="#C0C0C0" stroke-width="1" zIndex="1" opacity="1"></path><path fill="none" d="M 56 176.5 L 1005 176.5" stroke="#C0C0C0" stroke-width="1" zIndex="1" opacity="1"></path><path fill="none" d="M 56 241.5 L 1005 241.5" stroke="#C0C0C0" stroke-width="1" zIndex="1" opacity="1"></path><path fill="none" d="M 56 306.5 L 1005 306.5" stroke="#C0C0C0" stroke-width="1" zIndex="1" opacity="1"></path></g><g class="highcharts-axis" zIndex="2"><path fill="none" d="M 435.5 306 L 435.5 316" stroke="#C0D0E0" stroke-width="1" opacity="1"></path><path fill="none" d="M 624.5 306 L 624.5 316" stroke="#C0D0E0" stroke-width="1" opacity="1"></path><path fill="none" d="M 814.5 306 L 814.5 316" stroke="#C0D0E0" stroke-width="1" opacity="1"></path><path fill="none" d="M 1005.5 306 L 1005.5 316" stroke="#C0D0E0" stroke-width="1" opacity="1"></path><path fill="none" d="M 245.5 306 L 245.5 316" stroke="#C0D0E0" stroke-width="1" opacity="1"></path><path fill="none" d="M 55.5 306 L 55.5 316" stroke="#C0D0E0" stroke-width="1" opacity="1"></path><path fill="none" d="M 56 306.5 L 1005 306.5" stroke="#C0D0E0" stroke-width="1" zIndex="7" visibility="visible"></path></g><g class="highcharts-axis" zIndex="2"><text x="24.03125" zIndex="7" text-anchor="middle" transform="translate(0,0) rotate(270 24.03125 176)" class=" highcharts-yaxis-title" style="color:#707070;font-family:DejaVuSans;font-size:12px;fill:#707070;" visibility="visible" y="176"><tspan>Số lượng</tspan></text></g><g class="highcharts-series-group" zIndex="3"><g class="highcharts-series highcharts-tracker" visibility="visible" zIndex="0.1" transform="translate(56,46) scale(1 1)" style="" clip-path="url(#highcharts-15)"><rect x="43.5" y="65.5" width="46" height="195" fill="#7cb5ec" rx="0" ry="0" stroke="#FFFFFF" stroke-width="1"></rect><rect x="232.5" y="228.5" width="46" height="32" fill="#7cb5ec" rx="0" ry="0" stroke="#FFFFFF" stroke-width="1"></rect><rect x="422.5" y="260.5" width="46" height="0" fill="#7cb5ec" rx="0" ry="0" stroke="#FFFFFF" stroke-width="1"></rect><rect x="612.5" y="260.5" width="46" height="0" fill="#7cb5ec" rx="0" ry="0" stroke="#FFFFFF" stroke-width="1"></rect><rect x="802.5" y="260.5" width="46" height="0" fill="#7cb5ec" rx="0" ry="0" stroke="#FFFFFF" stroke-width="1"></rect></g><g class="highcharts-markers" visibility="visible" zIndex="0.1" transform="translate(56,46) scale(1 1)" clip-path="none"></g><g class="highcharts-series highcharts-tracker" visibility="visible" zIndex="0.1" transform="translate(56,46) scale(1 1)" style="" clip-path="url(#highcharts-15)"><rect x="100.5" y="33.5" width="46" height="227" fill="#434348" rx="0" ry="0" stroke="#FFFFFF" stroke-width="1"></rect><rect x="289.5" y="260.5" width="46" height="0" fill="#434348" rx="0" ry="0" stroke="#FFFFFF" stroke-width="1"></rect><rect x="479.5" y="260.5" width="46" height="0" fill="#434348" rx="0" ry="0" stroke="#FFFFFF" stroke-width="1"></rect><rect x="669.5" y="260.5" width="46" height="0" fill="#434348" rx="0" ry="0" stroke="#FFFFFF" stroke-width="1"></rect><rect x="859.5" y="260.5" width="46" height="0" fill="#434348" rx="0" ry="0" stroke="#FFFFFF" stroke-width="1"></rect></g><g class="highcharts-markers" visibility="visible" zIndex="0.1" transform="translate(56,46) scale(1 1)" clip-path="none"></g></g><text x="508" text-anchor="middle" class="highcharts-title" zIndex="4" style="color:#333333;font-size:18px;font-family:DejaVuSans;fill:#333333;width:951px;" y="25"><tspan>Thống kê câu hỏi &amp; câu trả lời theo chủ đề</tspan></text><g class="highcharts-legend" zIndex="7" transform="translate(434,348)"><g zIndex="1"><g><g class="highcharts-legend-item" zIndex="1" transform="translate(8,3)"><text x="21" style="color:#333333;font-size:12px;font-weight:bold;cursor:pointer;font-family:DejaVuSans;fill:#333333;" text-anchor="start" zIndex="2" y="15"><tspan>Trả lời</tspan></text><rect x="0" y="4" width="16" height="12" zIndex="3" fill="#434348"></rect></g><g class="highcharts-legend-item" zIndex="1" transform="translate(85.234375,3)"><text x="21" y="15" style="color:#333333;font-size:12px;font-weight:bold;cursor:pointer;font-family:DejaVuSans;fill:#333333;" text-anchor="start" zIndex="2"><tspan>Câu hỏi</tspan></text><rect x="0" y="4" width="16" height="12" zIndex="3" fill="#7cb5ec"></rect></g></g></g></g><g class="highcharts-axis-labels highcharts-xaxis-labels" zIndex="7"><text x="150.9" text-anchor="middle" style="width:170px;color:#606060;cursor:default;font-size:12px;font-family:DejaVuSans;fill:#606060;" y="327" opacity="1"><tspan>PHP Căn Bản</tspan></text><text x="340.70000000000005" text-anchor="middle" style="width:170px;color:#606060;cursor:default;font-size:12px;font-family:DejaVuSans;fill:#606060;" y="327" opacity="1"><tspan>PHP Nâng Cao</tspan></text><text x="530.5" text-anchor="middle" style="width:170px;color:#606060;cursor:default;font-size:12px;font-family:DejaVuSans;fill:#606060;" y="327" opacity="1"><tspan>Zend Framework</tspan></text><text x="720.3000000000001" text-anchor="middle" style="width:170px;color:#606060;cursor:default;font-size:12px;font-family:DejaVuSans;fill:#606060;" y="327" opacity="1"><tspan>HTML Căn bản</tspan></text><text x="910.1" text-anchor="middle" style="width:170px;color:#606060;cursor:default;font-size:12px;font-family:DejaVuSans;fill:#606060;" y="327" opacity="1">CSS3</text></g><g class="highcharts-axis-labels highcharts-yaxis-labels" zIndex="7"><text x="41" text-anchor="end" style="width:315px;color:#606060;cursor:default;font-size:11px;fill:#606060;" y="311.5" opacity="1">0</text><text x="41" text-anchor="end" style="width:315px;color:#606060;cursor:default;font-size:11px;fill:#606060;" y="246.5" opacity="1">2</text><text x="41" text-anchor="end" style="width:315px;color:#606060;cursor:default;font-size:11px;fill:#606060;" y="181.5" opacity="1">4</text><text x="41" text-anchor="end" style="width:315px;color:#606060;cursor:default;font-size:11px;fill:#606060;" y="116.5" opacity="1">6</text><text x="41" text-anchor="end" style="width:315px;color:#606060;cursor:default;font-size:11px;fill:#606060;" y="51.5" opacity="1">8</text></g><g class="highcharts-tooltip" zIndex="8" style="cursor:default;padding:0;white-space:nowrap;" transform="translate(0,-9999)"><path fill="none" d="M 3 0 L 13 0 C 16 0 16 0 16 3 L 16 13 C 16 16 16 16 13 16 L 3 16 C 0 16 0 16 0 13 L 0 3 C 0 0 0 0 3 0" isShadow="true" stroke="black" stroke-opacity="0.049999999999999996" stroke-width="5" transform="translate(1, 1)"></path><path fill="none" d="M 3 0 L 13 0 C 16 0 16 0 16 3 L 16 13 C 16 16 16 16 13 16 L 3 16 C 0 16 0 16 0 13 L 0 3 C 0 0 0 0 3 0" isShadow="true" stroke="black" stroke-opacity="0.09999999999999999" stroke-width="3" transform="translate(1, 1)"></path><path fill="none" d="M 3 0 L 13 0 C 16 0 16 0 16 3 L 16 13 C 16 16 16 16 13 16 L 3 16 C 0 16 0 16 0 13 L 0 3 C 0 0 0 0 3 0" isShadow="true" stroke="black" stroke-opacity="0.15" stroke-width="1" transform="translate(1, 1)"></path><path fill="rgba(249, 249, 249, .85)" d="M 3 0 L 13 0 C 16 0 16 0 16 3 L 16 13 C 16 16 16 16 13 16 L 3 16 C 0 16 0 16 0 13 L 0 3 C 0 0 0 0 3 0"></path><text x="8" zIndex="1" style="font-size:12px;color:#333333;fill:#333333;" y="21"></text></g></svg>