<svg version="1.1" style="font-family:&quot;Lucida Grande&quot;, &quot;Lucida Sans Unicode&quot;, Arial, Helvetica, sans-serif;font-size:12px;" xmlns="http://www.w3.org/2000/svg" width="1015" height="380"><desc>Created with Highcharts 4.0.4</desc><defs><clipPath id="highcharts-37"><rect x="0" y="0" width="786" height="298"></rect></clipPath></defs><rect x="0" y="0" width="1015" height="380" strokeWidth="0" fill="#FFFFFF" class=" highcharts-background"></rect><path fill="none" d="M 80 294.5 L 866 294.5" stroke="#808080" stroke-width="1"></path><path fill="rgba(124,181,236,0.25)" d="M 0 0"></path><g class="highcharts-grid" zIndex="1"></g><g class="highcharts-grid" zIndex="1"><path fill="none" d="M 80 45.5 L 866 45.5" stroke="#C0C0C0" stroke-width="1" zIndex="1" opacity="1"></path><path fill="none" d="M 80 96.5 L 866 96.5" stroke="#C0C0C0" stroke-width="1" zIndex="1" opacity="1"></path><path fill="none" d="M 80 145.5 L 866 145.5" stroke="#C0C0C0" stroke-width="1" zIndex="1" opacity="1"></path><path fill="none" d="M 80 195.5 L 866 195.5" stroke="#C0C0C0" stroke-width="1" zIndex="1" opacity="1"></path><path fill="none" d="M 80 245.5 L 866 245.5" stroke="#C0C0C0" stroke-width="1" zIndex="1" opacity="1"></path><path fill="none" d="M 80 294.5 L 866 294.5" stroke="#C0C0C0" stroke-width="1" zIndex="1" opacity="1"></path><path fill="none" d="M 80 344.5 L 866 344.5" stroke="#C0C0C0" stroke-width="1" zIndex="1" opacity="1"></path></g><g class="highcharts-axis" zIndex="2"><path fill="none" d="M 162.5 344 L 162.5 354" stroke="#C0D0E0" stroke-width="1" opacity="1"></path><path fill="none" d="M 203.5 344 L 203.5 354" stroke="#C0D0E0" stroke-width="1" opacity="1"></path><path fill="none" d="M 244.5 344 L 244.5 354" stroke="#C0D0E0" stroke-width="1" opacity="1"></path><path fill="none" d="M 286.5 344 L 286.5 354" stroke="#C0D0E0" stroke-width="1" opacity="1"></path><path fill="none" d="M 327.5 344 L 327.5 354" stroke="#C0D0E0" stroke-width="1" opacity="1"></path><path fill="none" d="M 369.5 344 L 369.5 354" stroke="#C0D0E0" stroke-width="1" opacity="1"></path><path fill="none" d="M 410.5 344 L 410.5 354" stroke="#C0D0E0" stroke-width="1" opacity="1"></path><path fill="none" d="M 451.5 344 L 451.5 354" stroke="#C0D0E0" stroke-width="1" opacity="1"></path><path fill="none" d="M 493.5 344 L 493.5 354" stroke="#C0D0E0" stroke-width="1" opacity="1"></path><path fill="none" d="M 534.5 344 L 534.5 354" stroke="#C0D0E0" stroke-width="1" opacity="1"></path><path fill="none" d="M 575.5 344 L 575.5 354" stroke="#C0D0E0" stroke-width="1" opacity="1"></path><path fill="none" d="M 617.5 344 L 617.5 354" stroke="#C0D0E0" stroke-width="1" opacity="1"></path><path fill="none" d="M 658.5 344 L 658.5 354" stroke="#C0D0E0" stroke-width="1" opacity="1"></path><path fill="none" d="M 700.5 344 L 700.5 354" stroke="#C0D0E0" stroke-width="1" opacity="1"></path><path fill="none" d="M 741.5 344 L 741.5 354" stroke="#C0D0E0" stroke-width="1" opacity="1"></path><path fill="none" d="M 782.5 344 L 782.5 354" stroke="#C0D0E0" stroke-width="1" opacity="1"></path><path fill="none" d="M 824.5 344 L 824.5 354" stroke="#C0D0E0" stroke-width="1" opacity="1"></path><path fill="none" d="M 865.5 344 L 865.5 354" stroke="#C0D0E0" stroke-width="1" opacity="1"></path><path fill="none" d="M 120.5 344 L 120.5 354" stroke="#C0D0E0" stroke-width="1" opacity="1"></path><path fill="none" d="M 79.5 344 L 79.5 354" stroke="#C0D0E0" stroke-width="1" opacity="1"></path><path fill="none" d="M 80 344.5 L 866 344.5" stroke="#C0D0E0" stroke-width="1" zIndex="7" visibility="visible"></path></g><g class="highcharts-axis" zIndex="2"><text x="24.296875" zIndex="7" text-anchor="middle" transform="translate(0,0) rotate(270 24.296875 195)" class=" highcharts-yaxis-title" style="color:#707070;font-family:DejaVuSans;font-size:12px;fill:#707070;" visibility="visible" y="195"><tspan>Số câu hỏi mới</tspan></text></g><g class="highcharts-series-group" zIndex="3"><g class="highcharts-series" visibility="visible" zIndex="0.1" transform="translate(80,46) scale(1 1)" clip-path="url(#highcharts-37)"><path fill="none" d="M 20.68421052631579 248.33333333333334 C 20.68421052631579 248.33333333333334 45.50526315789474 248.33333333333334 62.05263157894737 248.33333333333334 C 78.6 248.33333333333334 86.87368421052632 248.33333333333334 103.42105263157896 248.33333333333334 C 119.96842105263158 248.33333333333334 128.2421052631579 248.33333333333334 144.78947368421052 248.33333333333334 C 161.33684210526317 248.33333333333334 169.61052631578949 49.666666666666686 186.1578947368421 49.666666666666686 C 202.70526315789476 49.666666666666686 210.97894736842105 49.666666666666686 227.5263157894737 49.666666666666686 C 244.07368421052632 49.666666666666686 252.34736842105266 248.33333333333334 268.89473684210526 248.33333333333334 C 285.44210526315794 248.33333333333334 293.71578947368425 248.33333333333334 310.2631578947369 248.33333333333334 C 326.8105263157895 248.33333333333334 335.0842105263158 248.33333333333334 351.63157894736844 248.33333333333334 C 368.17894736842106 248.33333333333334 376.4526315789474 248.33333333333334 393 248.33333333333334 C 409.5473684210527 248.33333333333334 417.821052631579 248.33333333333334 434.3684210526316 248.33333333333334 C 450.91578947368424 248.33333333333334 459.1894736842106 248.33333333333334 475.7368421052632 248.33333333333334 C 492.28421052631586 248.33333333333334 500.5578947368422 248.33333333333334 517.1052631578948 248.33333333333334 C 533.6526315789474 248.33333333333334 541.9263157894737 248.33333333333334 558.4736842105264 248.33333333333334 C 575.021052631579 248.33333333333334 583.2947368421053 248.33333333333334 599.842105263158 248.33333333333334 C 616.3894736842107 248.33333333333334 624.663157894737 248.33333333333334 641.2105263157896 248.33333333333334 C 657.7578947368422 248.33333333333334 666.0315789473685 248.33333333333334 682.5789473684212 248.33333333333334 C 699.1263157894738 248.33333333333334 707.4000000000002 49.666666666666686 723.9473684210527 49.666666666666686 C 740.4947368421053 49.666666666666686 765.3157894736843 248.33333333333334 765.3157894736843 248.33333333333334" stroke="#7cb5ec" stroke-width="2" zIndex="1" stroke-linejoin="round" stroke-linecap="round"></path><path fill="none" d="M 10.684210526315791 248.33333333333334 L 20.68421052631579 248.33333333333334 C 20.68421052631579 248.33333333333334 45.50526315789474 248.33333333333334 62.05263157894737 248.33333333333334 C 78.6 248.33333333333334 86.87368421052632 248.33333333333334 103.42105263157896 248.33333333333334 C 119.96842105263158 248.33333333333334 128.2421052631579 248.33333333333334 144.78947368421052 248.33333333333334 C 161.33684210526317 248.33333333333334 169.61052631578949 49.666666666666686 186.1578947368421 49.666666666666686 C 202.70526315789476 49.666666666666686 210.97894736842105 49.666666666666686 227.5263157894737 49.666666666666686 C 244.07368421052632 49.666666666666686 252.34736842105266 248.33333333333334 268.89473684210526 248.33333333333334 C 285.44210526315794 248.33333333333334 293.71578947368425 248.33333333333334 310.2631578947369 248.33333333333334 C 326.8105263157895 248.33333333333334 335.0842105263158 248.33333333333334 351.63157894736844 248.33333333333334 C 368.17894736842106 248.33333333333334 376.4526315789474 248.33333333333334 393 248.33333333333334 C 409.5473684210527 248.33333333333334 417.821052631579 248.33333333333334 434.3684210526316 248.33333333333334 C 450.91578947368424 248.33333333333334 459.1894736842106 248.33333333333334 475.7368421052632 248.33333333333334 C 492.28421052631586 248.33333333333334 500.5578947368422 248.33333333333334 517.1052631578948 248.33333333333334 C 533.6526315789474 248.33333333333334 541.9263157894737 248.33333333333334 558.4736842105264 248.33333333333334 C 575.021052631579 248.33333333333334 583.2947368421053 248.33333333333334 599.842105263158 248.33333333333334 C 616.3894736842107 248.33333333333334 624.663157894737 248.33333333333334 641.2105263157896 248.33333333333334 C 657.7578947368422 248.33333333333334 666.0315789473685 248.33333333333334 682.5789473684212 248.33333333333334 C 699.1263157894738 248.33333333333334 707.4000000000002 49.666666666666686 723.9473684210527 49.666666666666686 C 740.4947368421053 49.666666666666686 765.3157894736843 248.33333333333334 765.3157894736843 248.33333333333334 L 775.3157894736843 248.33333333333334" stroke-linejoin="round" visibility="visible" stroke="rgba(192,192,192,0.0001)" stroke-width="22" zIndex="2" class=" highcharts-tracker" style=""></path></g><g class="highcharts-markers highcharts-tracker" visibility="visible" zIndex="0.1" transform="translate(80,46) scale(1 1)" clip-path="none" style=""><path fill="#7cb5ec" d="M 765.3157894736843 244.33333333333334 C 770.6437894736843 244.33333333333334 770.6437894736843 252.33333333333334 765.3157894736843 252.33333333333334 C 759.9877894736843 252.33333333333334 759.9877894736843 244.33333333333334 765.3157894736843 244.33333333333334 Z" stroke-width="1"></path><path fill="#7cb5ec" d="M 723 45.666666666666686 C 728.328 45.666666666666686 728.328 53.666666666666686 723 53.666666666666686 C 717.672 53.666666666666686 717.672 45.666666666666686 723 45.666666666666686 Z"></path><path fill="#7cb5ec" d="M 682 244.33333333333334 C 687.328 244.33333333333334 687.328 252.33333333333334 682 252.33333333333334 C 676.672 252.33333333333334 676.672 244.33333333333334 682 244.33333333333334 Z" stroke-width="1"></path><path fill="#7cb5ec" d="M 641.2105263157896 244.33333333333334 C 646.5385263157896 244.33333333333334 646.5385263157896 252.33333333333334 641.2105263157896 252.33333333333334 C 635.8825263157896 252.33333333333334 635.8825263157896 244.33333333333334 641.2105263157896 244.33333333333334 Z" stroke-width="1"></path><path fill="#7cb5ec" d="M 599 244.33333333333334 C 604.328 244.33333333333334 604.328 252.33333333333334 599 252.33333333333334 C 593.672 252.33333333333334 593.672 244.33333333333334 599 244.33333333333334 Z"></path><path fill="#7cb5ec" d="M 558.4736842105264 244.33333333333334 C 563.8016842105263 244.33333333333334 563.8016842105263 252.33333333333334 558.4736842105264 252.33333333333334 C 553.1456842105264 252.33333333333334 553.1456842105264 244.33333333333334 558.4736842105264 244.33333333333334 Z" stroke-width="1"></path><path fill="#7cb5ec" d="M 517 244.33333333333334 C 522.328 244.33333333333334 522.328 252.33333333333334 517 252.33333333333334 C 511.672 252.33333333333334 511.672 244.33333333333334 517 244.33333333333334 Z"></path><path fill="#7cb5ec" d="M 475 244.33333333333334 C 480.328 244.33333333333334 480.328 252.33333333333334 475 252.33333333333334 C 469.672 252.33333333333334 469.672 244.33333333333334 475 244.33333333333334 Z"></path><path fill="#7cb5ec" d="M 434 244.33333333333334 C 439.328 244.33333333333334 439.328 252.33333333333334 434 252.33333333333334 C 428.672 252.33333333333334 428.672 244.33333333333334 434 244.33333333333334 Z"></path><path fill="#7cb5ec" d="M 393 244.33333333333334 C 398.328 244.33333333333334 398.328 252.33333333333334 393 252.33333333333334 C 387.672 252.33333333333334 387.672 244.33333333333334 393 244.33333333333334 Z"></path><path fill="#7cb5ec" d="M 351 244.33333333333334 C 356.328 244.33333333333334 356.328 252.33333333333334 351 252.33333333333334 C 345.672 252.33333333333334 345.672 244.33333333333334 351 244.33333333333334 Z"></path><path fill="#7cb5ec" d="M 310 244.33333333333334 C 315.328 244.33333333333334 315.328 252.33333333333334 310 252.33333333333334 C 304.672 252.33333333333334 304.672 244.33333333333334 310 244.33333333333334 Z"></path><path fill="#7cb5ec" d="M 268 244.33333333333334 C 273.328 244.33333333333334 273.328 252.33333333333334 268 252.33333333333334 C 262.672 252.33333333333334 262.672 244.33333333333334 268 244.33333333333334 Z"></path><path fill="#7cb5ec" d="M 227 45.666666666666686 C 232.328 45.666666666666686 232.328 53.666666666666686 227 53.666666666666686 C 221.672 53.666666666666686 221.672 45.666666666666686 227 45.666666666666686 Z"></path><path fill="#7cb5ec" d="M 186 45.666666666666686 C 191.328 45.666666666666686 191.328 53.666666666666686 186 53.666666666666686 C 180.672 53.666666666666686 180.672 45.666666666666686 186 45.666666666666686 Z"></path><path fill="#7cb5ec" d="M 144 244.33333333333334 C 149.328 244.33333333333334 149.328 252.33333333333334 144 252.33333333333334 C 138.672 252.33333333333334 138.672 244.33333333333334 144 244.33333333333334 Z"></path><path fill="#7cb5ec" d="M 103 244.33333333333334 C 108.328 244.33333333333334 108.328 252.33333333333334 103 252.33333333333334 C 97.672 252.33333333333334 97.672 244.33333333333334 103 244.33333333333334 Z"></path><path fill="#7cb5ec" d="M 62 244.33333333333334 C 67.328 244.33333333333334 67.328 252.33333333333334 62 252.33333333333334 C 56.672 252.33333333333334 56.672 244.33333333333334 62 244.33333333333334 Z"></path><path fill="#7cb5ec" d="M 20 244.33333333333334 C 25.328 244.33333333333334 25.328 252.33333333333334 20 252.33333333333334 C 14.672 252.33333333333334 14.672 244.33333333333334 20 244.33333333333334 Z"></path></g><g class="highcharts-series" visibility="visible" zIndex="0.1" transform="translate(80,46) scale(1 1)" clip-path="url(#highcharts-37)"><path fill="none" d="M 20.68421052631579 248.33333333333334 C 20.68421052631579 248.33333333333334 45.50526315789474 248.33333333333334 62.05263157894737 248.33333333333334 C 78.6 248.33333333333334 86.87368421052632 248.33333333333334 103.42105263157896 248.33333333333334 C 119.96842105263158 248.33333333333334 128.2421052631579 248.33333333333334 144.78947368421052 248.33333333333334 C 161.33684210526317 248.33333333333334 169.61052631578949 248.33333333333334 186.1578947368421 248.33333333333334 C 202.70526315789476 248.33333333333334 210.97894736842105 248.33333333333334 227.5263157894737 248.33333333333334 C 244.07368421052632 248.33333333333334 252.34736842105266 248.33333333333334 268.89473684210526 248.33333333333334 C 285.44210526315794 248.33333333333334 293.71578947368425 248.33333333333334 310.2631578947369 248.33333333333334 C 326.8105263157895 248.33333333333334 335.0842105263158 248.33333333333334 351.63157894736844 248.33333333333334 C 368.17894736842106 248.33333333333334 376.4526315789474 248.33333333333334 393 248.33333333333334 C 409.5473684210527 248.33333333333334 417.821052631579 248.33333333333334 434.3684210526316 248.33333333333334 C 450.91578947368424 248.33333333333334 459.1894736842106 248.33333333333334 475.7368421052632 248.33333333333334 C 492.28421052631586 248.33333333333334 500.5578947368422 248.33333333333334 517.1052631578948 248.33333333333334 C 533.6526315789474 248.33333333333334 541.9263157894737 49.666666666666686 558.4736842105264 49.666666666666686 C 575.021052631579 49.666666666666686 583.2947368421053 248.33333333333334 599.842105263158 248.33333333333334 C 616.3894736842107 248.33333333333334 624.663157894737 248.33333333333334 641.2105263157896 248.33333333333334 C 657.7578947368422 248.33333333333334 666.0315789473685 49.666666666666686 682.5789473684212 49.666666666666686 C 699.1263157894738 49.666666666666686 707.4000000000002 248.33333333333334 723.9473684210527 248.33333333333334 C 740.4947368421053 248.33333333333334 765.3157894736843 248.33333333333334 765.3157894736843 248.33333333333334" stroke="#434348" stroke-width="2" zIndex="1" stroke-linejoin="round" stroke-linecap="round"></path><path fill="none" d="M 10.684210526315791 248.33333333333334 L 20.68421052631579 248.33333333333334 C 20.68421052631579 248.33333333333334 45.50526315789474 248.33333333333334 62.05263157894737 248.33333333333334 C 78.6 248.33333333333334 86.87368421052632 248.33333333333334 103.42105263157896 248.33333333333334 C 119.96842105263158 248.33333333333334 128.2421052631579 248.33333333333334 144.78947368421052 248.33333333333334 C 161.33684210526317 248.33333333333334 169.61052631578949 248.33333333333334 186.1578947368421 248.33333333333334 C 202.70526315789476 248.33333333333334 210.97894736842105 248.33333333333334 227.5263157894737 248.33333333333334 C 244.07368421052632 248.33333333333334 252.34736842105266 248.33333333333334 268.89473684210526 248.33333333333334 C 285.44210526315794 248.33333333333334 293.71578947368425 248.33333333333334 310.2631578947369 248.33333333333334 C 326.8105263157895 248.33333333333334 335.0842105263158 248.33333333333334 351.63157894736844 248.33333333333334 C 368.17894736842106 248.33333333333334 376.4526315789474 248.33333333333334 393 248.33333333333334 C 409.5473684210527 248.33333333333334 417.821052631579 248.33333333333334 434.3684210526316 248.33333333333334 C 450.91578947368424 248.33333333333334 459.1894736842106 248.33333333333334 475.7368421052632 248.33333333333334 C 492.28421052631586 248.33333333333334 500.5578947368422 248.33333333333334 517.1052631578948 248.33333333333334 C 533.6526315789474 248.33333333333334 541.9263157894737 49.666666666666686 558.4736842105264 49.666666666666686 C 575.021052631579 49.666666666666686 583.2947368421053 248.33333333333334 599.842105263158 248.33333333333334 C 616.3894736842107 248.33333333333334 624.663157894737 248.33333333333334 641.2105263157896 248.33333333333334 C 657.7578947368422 248.33333333333334 666.0315789473685 49.666666666666686 682.5789473684212 49.666666666666686 C 699.1263157894738 49.666666666666686 707.4000000000002 248.33333333333334 723.9473684210527 248.33333333333334 C 740.4947368421053 248.33333333333334 765.3157894736843 248.33333333333334 765.3157894736843 248.33333333333334 L 775.3157894736843 248.33333333333334" stroke-linejoin="round" visibility="visible" stroke="rgba(192,192,192,0.0001)" stroke-width="22" zIndex="2" class=" highcharts-tracker" style=""></path></g><g class="highcharts-markers highcharts-tracker" visibility="visible" zIndex="0.1" transform="translate(80,46) scale(1 1)" clip-path="none" style=""><path fill="#434348" d="M 765 244.33333333333334 L 769 248.33333333333334 765 252.33333333333334 761 248.33333333333334 Z"></path><path fill="#434348" d="M 723 244.33333333333334 L 727 248.33333333333334 723 252.33333333333334 719 248.33333333333334 Z"></path><path fill="#434348" d="M 682 45.666666666666686 L 686 49.666666666666686 682 53.666666666666686 678 49.666666666666686 Z"></path><path fill="#434348" d="M 641 244.33333333333334 L 645 248.33333333333334 641 252.33333333333334 637 248.33333333333334 Z"></path><path fill="#434348" d="M 599 244.33333333333334 L 603 248.33333333333334 599 252.33333333333334 595 248.33333333333334 Z"></path><path fill="#434348" d="M 558 45.666666666666686 L 562 49.666666666666686 558 53.666666666666686 554 49.666666666666686 Z"></path><path fill="#434348" d="M 517 244.33333333333334 L 521 248.33333333333334 517 252.33333333333334 513 248.33333333333334 Z"></path><path fill="#434348" d="M 475 244.33333333333334 L 479 248.33333333333334 475 252.33333333333334 471 248.33333333333334 Z"></path><path fill="#434348" d="M 434 244.33333333333334 L 438 248.33333333333334 434 252.33333333333334 430 248.33333333333334 Z"></path><path fill="#434348" d="M 393 244.33333333333334 L 397 248.33333333333334 393 252.33333333333334 389 248.33333333333334 Z"></path><path fill="#434348" d="M 351 244.33333333333334 L 355 248.33333333333334 351 252.33333333333334 347 248.33333333333334 Z"></path><path fill="#434348" d="M 310 244.33333333333334 L 314 248.33333333333334 310 252.33333333333334 306 248.33333333333334 Z"></path><path fill="#434348" d="M 268 244.33333333333334 L 272 248.33333333333334 268 252.33333333333334 264 248.33333333333334 Z"></path><path fill="#434348" d="M 227 244.33333333333334 L 231 248.33333333333334 227 252.33333333333334 223 248.33333333333334 Z"></path><path fill="#434348" d="M 186 244.33333333333334 L 190 248.33333333333334 186 252.33333333333334 182 248.33333333333334 Z"></path><path fill="#434348" d="M 144 244.33333333333334 L 148 248.33333333333334 144 252.33333333333334 140 248.33333333333334 Z"></path><path fill="#434348" d="M 103 244.33333333333334 L 107 248.33333333333334 103 252.33333333333334 99 248.33333333333334 Z"></path><path fill="#434348" d="M 62 244.33333333333334 L 66 248.33333333333334 62 252.33333333333334 58 248.33333333333334 Z"></path><path fill="#434348" d="M 20 244.33333333333334 L 24 248.33333333333334 20 252.33333333333334 16 248.33333333333334 Z"></path></g><g class="highcharts-series" visibility="hidden" zIndex="0.1" transform="translate(80,46) scale(1 1)" clip-path="url(#highcharts-37)"><path fill="none" d="M 20.68421052631579 248.33333333333334 C 20.68421052631579 248.33333333333334 45.50526315789474 248.33333333333334 62.05263157894737 248.33333333333334 C 78.6 248.33333333333334 86.87368421052632 248.33333333333334 103.42105263157896 248.33333333333334 C 119.96842105263158 248.33333333333334 128.2421052631579 248.33333333333334 144.78947368421052 248.33333333333334 C 161.33684210526317 248.33333333333334 169.61052631578949 248.33333333333334 186.1578947368421 248.33333333333334 C 202.70526315789476 248.33333333333334 210.97894736842105 248.33333333333334 227.5263157894737 248.33333333333334 C 244.07368421052632 248.33333333333334 252.34736842105266 248.33333333333334 268.89473684210526 248.33333333333334 C 285.44210526315794 248.33333333333334 293.71578947368425 248.33333333333334 310.2631578947369 248.33333333333334 C 326.8105263157895 248.33333333333334 335.0842105263158 49.666666666666686 351.63157894736844 49.666666666666686 C 368.17894736842106 49.666666666666686 376.4526315789474 248.33333333333334 393 248.33333333333334 C 409.5473684210527 248.33333333333334 417.821052631579 248.33333333333334 434.3684210526316 248.33333333333334 C 450.91578947368424 248.33333333333334 459.1894736842106 248.33333333333334 475.7368421052632 248.33333333333334 C 492.28421052631586 248.33333333333334 500.5578947368422 49.666666666666686 517.1052631578948 49.666666666666686 C 533.6526315789474 49.666666666666686 541.9263157894737 248.33333333333334 558.4736842105264 248.33333333333334 C 575.021052631579 248.33333333333334 583.2947368421053 248.33333333333334 599.842105263158 248.33333333333334 C 616.3894736842107 248.33333333333334 624.663157894737 248.33333333333334 641.2105263157896 248.33333333333334 C 657.7578947368422 248.33333333333334 666.0315789473685 248.33333333333334 682.5789473684212 248.33333333333334 C 699.1263157894738 248.33333333333334 707.4000000000002 248.33333333333334 723.9473684210527 248.33333333333334 C 740.4947368421053 248.33333333333334 765.3157894736843 248.33333333333334 765.3157894736843 248.33333333333334" stroke="#90ed7d" stroke-width="2" zIndex="1" stroke-linejoin="round" stroke-linecap="round"></path><path fill="none" d="M 10.684210526315791 248.33333333333334 L 20.68421052631579 248.33333333333334 C 20.68421052631579 248.33333333333334 45.50526315789474 248.33333333333334 62.05263157894737 248.33333333333334 C 78.6 248.33333333333334 86.87368421052632 248.33333333333334 103.42105263157896 248.33333333333334 C 119.96842105263158 248.33333333333334 128.2421052631579 248.33333333333334 144.78947368421052 248.33333333333334 C 161.33684210526317 248.33333333333334 169.61052631578949 248.33333333333334 186.1578947368421 248.33333333333334 C 202.70526315789476 248.33333333333334 210.97894736842105 248.33333333333334 227.5263157894737 248.33333333333334 C 244.07368421052632 248.33333333333334 252.34736842105266 248.33333333333334 268.89473684210526 248.33333333333334 C 285.44210526315794 248.33333333333334 293.71578947368425 248.33333333333334 310.2631578947369 248.33333333333334 C 326.8105263157895 248.33333333333334 335.0842105263158 49.666666666666686 351.63157894736844 49.666666666666686 C 368.17894736842106 49.666666666666686 376.4526315789474 248.33333333333334 393 248.33333333333334 C 409.5473684210527 248.33333333333334 417.821052631579 248.33333333333334 434.3684210526316 248.33333333333334 C 450.91578947368424 248.33333333333334 459.1894736842106 248.33333333333334 475.7368421052632 248.33333333333334 C 492.28421052631586 248.33333333333334 500.5578947368422 49.666666666666686 517.1052631578948 49.666666666666686 C 533.6526315789474 49.666666666666686 541.9263157894737 248.33333333333334 558.4736842105264 248.33333333333334 C 575.021052631579 248.33333333333334 583.2947368421053 248.33333333333334 599.842105263158 248.33333333333334 C 616.3894736842107 248.33333333333334 624.663157894737 248.33333333333334 641.2105263157896 248.33333333333334 C 657.7578947368422 248.33333333333334 666.0315789473685 248.33333333333334 682.5789473684212 248.33333333333334 C 699.1263157894738 248.33333333333334 707.4000000000002 248.33333333333334 723.9473684210527 248.33333333333334 C 740.4947368421053 248.33333333333334 765.3157894736843 248.33333333333334 765.3157894736843 248.33333333333334 L 775.3157894736843 248.33333333333334" stroke-linejoin="round" visibility="hidden" stroke="rgba(192,192,192,0.0001)" stroke-width="22" zIndex="2" class=" highcharts-tracker" style=""></path></g><g class="highcharts-markers highcharts-tracker" visibility="hidden" zIndex="0.1" transform="translate(80,46) scale(1 1)" clip-path="none" style=""><path fill="#90ed7d" d="M 761 244.33333333333334 L 769 244.33333333333334 769 252.33333333333334 761 252.33333333333334 Z"></path><path fill="#90ed7d" d="M 719 244.33333333333334 L 727 244.33333333333334 727 252.33333333333334 719 252.33333333333334 Z"></path><path fill="#90ed7d" d="M 678 244.33333333333334 L 686 244.33333333333334 686 252.33333333333334 678 252.33333333333334 Z"></path><path fill="#90ed7d" d="M 637 244.33333333333334 L 645 244.33333333333334 645 252.33333333333334 637 252.33333333333334 Z"></path><path fill="#90ed7d" d="M 595 244.33333333333334 L 603 244.33333333333334 603 252.33333333333334 595 252.33333333333334 Z"></path><path fill="#90ed7d" d="M 554 244.33333333333334 L 562 244.33333333333334 562 252.33333333333334 554 252.33333333333334 Z"></path><path fill="#90ed7d" d="M 513 45.666666666666686 L 521 45.666666666666686 521 53.666666666666686 513 53.666666666666686 Z"></path><path fill="#90ed7d" d="M 471 244.33333333333334 L 479 244.33333333333334 479 252.33333333333334 471 252.33333333333334 Z"></path><path fill="#90ed7d" d="M 430 244.33333333333334 L 438 244.33333333333334 438 252.33333333333334 430 252.33333333333334 Z"></path><path fill="#90ed7d" d="M 389 244.33333333333334 L 397 244.33333333333334 397 252.33333333333334 389 252.33333333333334 Z"></path><path fill="#90ed7d" d="M 347 45.666666666666686 L 355 45.666666666666686 355 53.666666666666686 347 53.666666666666686 Z"></path><path fill="#90ed7d" d="M 306 244.33333333333334 L 314 244.33333333333334 314 252.33333333333334 306 252.33333333333334 Z"></path><path fill="#90ed7d" d="M 264 244.33333333333334 L 272 244.33333333333334 272 252.33333333333334 264 252.33333333333334 Z"></path><path fill="#90ed7d" d="M 223 244.33333333333334 L 231 244.33333333333334 231 252.33333333333334 223 252.33333333333334 Z"></path><path fill="#90ed7d" d="M 182 244.33333333333334 L 190 244.33333333333334 190 252.33333333333334 182 252.33333333333334 Z"></path><path fill="#90ed7d" d="M 140 244.33333333333334 L 148 244.33333333333334 148 252.33333333333334 140 252.33333333333334 Z"></path><path fill="#90ed7d" d="M 99 244.33333333333334 L 107 244.33333333333334 107 252.33333333333334 99 252.33333333333334 Z"></path><path fill="#90ed7d" d="M 58 244.33333333333334 L 66 244.33333333333334 66 252.33333333333334 58 252.33333333333334 Z"></path><path fill="#90ed7d" d="M 16 244.33333333333334 L 24 244.33333333333334 24 252.33333333333334 16 252.33333333333334 Z"></path></g><g class="highcharts-series" visibility="hidden" zIndex="0.1" transform="translate(80,46) scale(1 1)" clip-path="url(#highcharts-37)"><path fill="none" d="M 20.68421052631579 248.33333333333334 C 20.68421052631579 248.33333333333334 45.50526315789474 248.33333333333334 62.05263157894737 248.33333333333334 C 78.6 248.33333333333334 86.87368421052632 248.33333333333334 103.42105263157896 248.33333333333334 C 119.96842105263158 248.33333333333334 128.2421052631579 248.33333333333334 144.78947368421052 248.33333333333334 C 161.33684210526317 248.33333333333334 169.61052631578949 248.33333333333334 186.1578947368421 248.33333333333334 C 202.70526315789476 248.33333333333334 210.97894736842105 248.33333333333334 227.5263157894737 248.33333333333334 C 244.07368421052632 248.33333333333334 252.34736842105266 248.33333333333334 268.89473684210526 248.33333333333334 C 285.44210526315794 248.33333333333334 293.71578947368425 248.33333333333334 310.2631578947369 248.33333333333334 C 326.8105263157895 248.33333333333334 335.0842105263158 49.666666666666686 351.63157894736844 49.666666666666686 C 368.17894736842106 49.666666666666686 376.4526315789474 248.33333333333334 393 248.33333333333334 C 409.5473684210527 248.33333333333334 417.821052631579 248.33333333333334 434.3684210526316 248.33333333333334 C 450.91578947368424 248.33333333333334 459.1894736842106 248.33333333333334 475.7368421052632 248.33333333333334 C 492.28421052631586 248.33333333333334 500.5578947368422 248.33333333333334 517.1052631578948 248.33333333333334 C 533.6526315789474 248.33333333333334 541.9263157894737 49.666666666666686 558.4736842105264 49.666666666666686 C 575.021052631579 49.666666666666686 583.2947368421053 248.33333333333334 599.842105263158 248.33333333333334 C 616.3894736842107 248.33333333333334 624.663157894737 248.33333333333334 641.2105263157896 248.33333333333334 C 657.7578947368422 248.33333333333334 666.0315789473685 248.33333333333334 682.5789473684212 248.33333333333334 C 699.1263157894738 248.33333333333334 707.4000000000002 248.33333333333334 723.9473684210527 248.33333333333334 C 740.4947368421053 248.33333333333334 765.3157894736843 248.33333333333334 765.3157894736843 248.33333333333334" stroke="#f7a35c" stroke-width="2" zIndex="1" stroke-linejoin="round" stroke-linecap="round"></path><path fill="none" d="M 10.684210526315791 248.33333333333334 L 20.68421052631579 248.33333333333334 C 20.68421052631579 248.33333333333334 45.50526315789474 248.33333333333334 62.05263157894737 248.33333333333334 C 78.6 248.33333333333334 86.87368421052632 248.33333333333334 103.42105263157896 248.33333333333334 C 119.96842105263158 248.33333333333334 128.2421052631579 248.33333333333334 144.78947368421052 248.33333333333334 C 161.33684210526317 248.33333333333334 169.61052631578949 248.33333333333334 186.1578947368421 248.33333333333334 C 202.70526315789476 248.33333333333334 210.97894736842105 248.33333333333334 227.5263157894737 248.33333333333334 C 244.07368421052632 248.33333333333334 252.34736842105266 248.33333333333334 268.89473684210526 248.33333333333334 C 285.44210526315794 248.33333333333334 293.71578947368425 248.33333333333334 310.2631578947369 248.33333333333334 C 326.8105263157895 248.33333333333334 335.0842105263158 49.666666666666686 351.63157894736844 49.666666666666686 C 368.17894736842106 49.666666666666686 376.4526315789474 248.33333333333334 393 248.33333333333334 C 409.5473684210527 248.33333333333334 417.821052631579 248.33333333333334 434.3684210526316 248.33333333333334 C 450.91578947368424 248.33333333333334 459.1894736842106 248.33333333333334 475.7368421052632 248.33333333333334 C 492.28421052631586 248.33333333333334 500.5578947368422 248.33333333333334 517.1052631578948 248.33333333333334 C 533.6526315789474 248.33333333333334 541.9263157894737 49.666666666666686 558.4736842105264 49.666666666666686 C 575.021052631579 49.666666666666686 583.2947368421053 248.33333333333334 599.842105263158 248.33333333333334 C 616.3894736842107 248.33333333333334 624.663157894737 248.33333333333334 641.2105263157896 248.33333333333334 C 657.7578947368422 248.33333333333334 666.0315789473685 248.33333333333334 682.5789473684212 248.33333333333334 C 699.1263157894738 248.33333333333334 707.4000000000002 248.33333333333334 723.9473684210527 248.33333333333334 C 740.4947368421053 248.33333333333334 765.3157894736843 248.33333333333334 765.3157894736843 248.33333333333334 L 775.3157894736843 248.33333333333334" stroke-linejoin="round" visibility="hidden" stroke="rgba(192,192,192,0.0001)" stroke-width="22" zIndex="2" class=" highcharts-tracker" style=""></path></g><g class="highcharts-markers highcharts-tracker" visibility="hidden" zIndex="0.1" transform="translate(80,46) scale(1 1)" clip-path="none" style=""><path fill="#f7a35c" d="M 765 244.33333333333334 L 769 252.33333333333334 761 252.33333333333334 Z"></path><path fill="#f7a35c" d="M 723 244.33333333333334 L 727 252.33333333333334 719 252.33333333333334 Z"></path><path fill="#f7a35c" d="M 682 244.33333333333334 L 686 252.33333333333334 678 252.33333333333334 Z"></path><path fill="#f7a35c" d="M 641 244.33333333333334 L 645 252.33333333333334 637 252.33333333333334 Z"></path><path fill="#f7a35c" d="M 599 244.33333333333334 L 603 252.33333333333334 595 252.33333333333334 Z"></path><path fill="#f7a35c" d="M 558 45.666666666666686 L 562 53.666666666666686 554 53.666666666666686 Z"></path><path fill="#f7a35c" d="M 517 244.33333333333334 L 521 252.33333333333334 513 252.33333333333334 Z"></path><path fill="#f7a35c" d="M 475 244.33333333333334 L 479 252.33333333333334 471 252.33333333333334 Z"></path><path fill="#f7a35c" d="M 434 244.33333333333334 L 438 252.33333333333334 430 252.33333333333334 Z"></path><path fill="#f7a35c" d="M 393 244.33333333333334 L 397 252.33333333333334 389 252.33333333333334 Z"></path><path fill="#f7a35c" d="M 351 45.666666666666686 L 355 53.666666666666686 347 53.666666666666686 Z"></path><path fill="#f7a35c" d="M 310 244.33333333333334 L 314 252.33333333333334 306 252.33333333333334 Z"></path><path fill="#f7a35c" d="M 268 244.33333333333334 L 272 252.33333333333334 264 252.33333333333334 Z"></path><path fill="#f7a35c" d="M 227 244.33333333333334 L 231 252.33333333333334 223 252.33333333333334 Z"></path><path fill="#f7a35c" d="M 186 244.33333333333334 L 190 252.33333333333334 182 252.33333333333334 Z"></path><path fill="#f7a35c" d="M 144 244.33333333333334 L 148 252.33333333333334 140 252.33333333333334 Z"></path><path fill="#f7a35c" d="M 103 244.33333333333334 L 107 252.33333333333334 99 252.33333333333334 Z"></path><path fill="#f7a35c" d="M 62 244.33333333333334 L 66 252.33333333333334 58 252.33333333333334 Z"></path><path fill="#f7a35c" d="M 20 244.33333333333334 L 24 252.33333333333334 16 252.33333333333334 Z"></path></g><g class="highcharts-series" visibility="hidden" zIndex="0.1" transform="translate(80,46) scale(1 1)" clip-path="url(#highcharts-37)"><path fill="none" d="M 20.68421052631579 248.33333333333334 C 20.68421052631579 248.33333333333334 45.50526315789474 248.33333333333334 62.05263157894737 248.33333333333334 C 78.6 248.33333333333334 86.87368421052632 248.33333333333334 103.42105263157896 248.33333333333334 C 119.96842105263158 248.33333333333334 128.2421052631579 248.33333333333334 144.78947368421052 248.33333333333334 C 161.33684210526317 248.33333333333334 169.61052631578949 248.33333333333334 186.1578947368421 248.33333333333334 C 202.70526315789476 248.33333333333334 210.97894736842105 248.33333333333334 227.5263157894737 248.33333333333334 C 244.07368421052632 248.33333333333334 252.34736842105266 248.33333333333334 268.89473684210526 248.33333333333334 C 285.44210526315794 248.33333333333334 293.71578947368425 49.666666666666686 310.2631578947369 49.666666666666686 C 326.8105263157895 49.666666666666686 335.0842105263158 49.666666666666686 351.63157894736844 49.666666666666686 C 368.17894736842106 49.666666666666686 376.4526315789474 248.33333333333334 393 248.33333333333334 C 409.5473684210527 248.33333333333334 417.821052631579 248.33333333333334 434.3684210526316 248.33333333333334 C 450.91578947368424 248.33333333333334 459.1894736842106 248.33333333333334 475.7368421052632 248.33333333333334 C 492.28421052631586 248.33333333333334 500.5578947368422 248.33333333333334 517.1052631578948 248.33333333333334 C 533.6526315789474 248.33333333333334 541.9263157894737 248.33333333333334 558.4736842105264 248.33333333333334 C 575.021052631579 248.33333333333334 583.2947368421053 248.33333333333334 599.842105263158 248.33333333333334 C 616.3894736842107 248.33333333333334 624.663157894737 49.666666666666686 641.2105263157896 49.666666666666686 C 657.7578947368422 49.666666666666686 666.0315789473685 248.33333333333334 682.5789473684212 248.33333333333334 C 699.1263157894738 248.33333333333334 707.4000000000002 248.33333333333334 723.9473684210527 248.33333333333334 C 740.4947368421053 248.33333333333334 765.3157894736843 248.33333333333334 765.3157894736843 248.33333333333334" stroke="#8085e9" stroke-width="2" zIndex="1" stroke-linejoin="round" stroke-linecap="round"></path><path fill="none" d="M 10.684210526315791 248.33333333333334 L 20.68421052631579 248.33333333333334 C 20.68421052631579 248.33333333333334 45.50526315789474 248.33333333333334 62.05263157894737 248.33333333333334 C 78.6 248.33333333333334 86.87368421052632 248.33333333333334 103.42105263157896 248.33333333333334 C 119.96842105263158 248.33333333333334 128.2421052631579 248.33333333333334 144.78947368421052 248.33333333333334 C 161.33684210526317 248.33333333333334 169.61052631578949 248.33333333333334 186.1578947368421 248.33333333333334 C 202.70526315789476 248.33333333333334 210.97894736842105 248.33333333333334 227.5263157894737 248.33333333333334 C 244.07368421052632 248.33333333333334 252.34736842105266 248.33333333333334 268.89473684210526 248.33333333333334 C 285.44210526315794 248.33333333333334 293.71578947368425 49.666666666666686 310.2631578947369 49.666666666666686 C 326.8105263157895 49.666666666666686 335.0842105263158 49.666666666666686 351.63157894736844 49.666666666666686 C 368.17894736842106 49.666666666666686 376.4526315789474 248.33333333333334 393 248.33333333333334 C 409.5473684210527 248.33333333333334 417.821052631579 248.33333333333334 434.3684210526316 248.33333333333334 C 450.91578947368424 248.33333333333334 459.1894736842106 248.33333333333334 475.7368421052632 248.33333333333334 C 492.28421052631586 248.33333333333334 500.5578947368422 248.33333333333334 517.1052631578948 248.33333333333334 C 533.6526315789474 248.33333333333334 541.9263157894737 248.33333333333334 558.4736842105264 248.33333333333334 C 575.021052631579 248.33333333333334 583.2947368421053 248.33333333333334 599.842105263158 248.33333333333334 C 616.3894736842107 248.33333333333334 624.663157894737 49.666666666666686 641.2105263157896 49.666666666666686 C 657.7578947368422 49.666666666666686 666.0315789473685 248.33333333333334 682.5789473684212 248.33333333333334 C 699.1263157894738 248.33333333333334 707.4000000000002 248.33333333333334 723.9473684210527 248.33333333333334 C 740.4947368421053 248.33333333333334 765.3157894736843 248.33333333333334 765.3157894736843 248.33333333333334 L 775.3157894736843 248.33333333333334" stroke-linejoin="round" visibility="hidden" stroke="rgba(192,192,192,0.0001)" stroke-width="22" zIndex="2" class=" highcharts-tracker" style=""></path></g><g class="highcharts-markers highcharts-tracker" visibility="hidden" zIndex="0.1" transform="translate(80,46) scale(1 1)" clip-path="none" style=""><path fill="#8085e9" d="M 761 244.33333333333334 L 769 244.33333333333334 765 252.33333333333334 Z"></path><path fill="#8085e9" d="M 719 244.33333333333334 L 727 244.33333333333334 723 252.33333333333334 Z"></path><path fill="#8085e9" d="M 678 244.33333333333334 L 686 244.33333333333334 682 252.33333333333334 Z"></path><path fill="#8085e9" d="M 637 45.666666666666686 L 645 45.666666666666686 641 53.666666666666686 Z"></path><path fill="#8085e9" d="M 595 244.33333333333334 L 603 244.33333333333334 599 252.33333333333334 Z"></path><path fill="#8085e9" d="M 554 244.33333333333334 L 562 244.33333333333334 558 252.33333333333334 Z"></path><path fill="#8085e9" d="M 513 244.33333333333334 L 521 244.33333333333334 517 252.33333333333334 Z"></path><path fill="#8085e9" d="M 471 244.33333333333334 L 479 244.33333333333334 475 252.33333333333334 Z"></path><path fill="#8085e9" d="M 430 244.33333333333334 L 438 244.33333333333334 434 252.33333333333334 Z"></path><path fill="#8085e9" d="M 389 244.33333333333334 L 397 244.33333333333334 393 252.33333333333334 Z"></path><path fill="#8085e9" d="M 347 45.666666666666686 L 355 45.666666666666686 351 53.666666666666686 Z"></path><path fill="#8085e9" d="M 306 45.666666666666686 L 314 45.666666666666686 310 53.666666666666686 Z"></path><path fill="#8085e9" d="M 264 244.33333333333334 L 272 244.33333333333334 268 252.33333333333334 Z"></path><path fill="#8085e9" d="M 223 244.33333333333334 L 231 244.33333333333334 227 252.33333333333334 Z"></path><path fill="#8085e9" d="M 182 244.33333333333334 L 190 244.33333333333334 186 252.33333333333334 Z"></path><path fill="#8085e9" d="M 140 244.33333333333334 L 148 244.33333333333334 144 252.33333333333334 Z"></path><path fill="#8085e9" d="M 99 244.33333333333334 L 107 244.33333333333334 103 252.33333333333334 Z"></path><path fill="#8085e9" d="M 58 244.33333333333334 L 66 244.33333333333334 62 252.33333333333334 Z"></path><path fill="#8085e9" d="M 16 244.33333333333334 L 24 244.33333333333334 20 252.33333333333334 Z"></path></g></g><text x="488" text-anchor="middle" class="highcharts-title" zIndex="4" style="color:#333333;font-size:18px;font-family:DejaVuSans;fill:#333333;width:951px;" y="25"><tspan>Thống kê câu hỏi theo ngày</tspan></text><g class="highcharts-legend" zIndex="7" transform="translate(886,151)"><g zIndex="1"><g><g class="highcharts-legend-item" zIndex="1" transform="translate(8,3)"><path fill="none" d="M 0 11 L 16 11" stroke="#7cb5ec" stroke-width="2"></path><path fill="#7cb5ec" d="M 8 7 C 13.328 7 13.328 15 8 15 C 2.6719999999999997 15 2.6719999999999997 7 8 7 Z"></path><text x="21" style="color:#333333;font-size:12px;font-weight:bold;cursor:pointer;font-family:DejaVuSans;fill:#333333;" text-anchor="start" zIndex="2" y="15"><tspan>PHP Basic</tspan></text></g><g class="highcharts-legend-item" zIndex="1" transform="translate(8,17)"><path fill="none" d="M 0 11 L 16 11" stroke="#434348" stroke-width="2"></path><path fill="#434348" d="M 8 7 L 12 11 8 15 4 11 Z"></path><text x="21" y="15" style="color:#333333;font-size:12px;font-weight:bold;cursor:pointer;font-family:DejaVuSans;fill:#333333;" text-anchor="start" zIndex="2"><tspan>PHP Framework</tspan></text></g><g class="highcharts-legend-item" zIndex="1" transform="translate(8,31)"><path fill="none" d="M 0 11 L 16 11" stroke="#CCC" stroke-width="2"></path><path fill="#CCC" d="M 4 7 L 12 7 12 15 4 15 Z"></path><text x="21" y="15" style="color:#CCC;font-size:12px;font-weight:bold;cursor:pointer;font-family:DejaVuSans;fill:#CCC;" text-anchor="start" zIndex="2"><tspan>Zend Framework</tspan></text></g><g class="highcharts-legend-item" zIndex="1" transform="translate(8,45)"><path fill="none" d="M 0 11 L 16 11" stroke="#CCC" stroke-width="2"></path><path fill="#CCC" d="M 8 7 L 12 15 4 15 Z"></path><text x="21" y="15" style="color:#CCC;font-size:12px;font-weight:bold;cursor:pointer;font-family:DejaVuSans;fill:#CCC;" text-anchor="start" zIndex="2"><tspan>HTML Căn bản</tspan></text></g><g class="highcharts-legend-item" zIndex="1" transform="translate(8,59)"><path fill="none" d="M 0 11 L 16 11" stroke="#CCC" stroke-width="2"></path><path fill="#CCC" d="M 4 7 L 12 7 8 15 Z"></path><text x="21" y="15" style="color:#CCC;font-size:12px;font-weight:bold;cursor:pointer;font-family:DejaVuSans;fill:#CCC;" text-anchor="start" zIndex="2">CSS3</text></g></g></g></g><g class="highcharts-axis-labels highcharts-xaxis-labels" zIndex="7"><text x="100.6842105263158" text-anchor="middle" style="width:21px;color:#606060;cursor:default;font-size:11px;fill:#606060;" y="364" opacity="1">14-Jan</text><text x="142.0526315789474" text-anchor="middle" style="width:21px;color:#606060;cursor:default;font-size:11px;fill:#606060;" y="364" opacity="1">15-Jan</text><text x="183.42105263157896" text-anchor="middle" style="width:21px;color:#606060;cursor:default;font-size:11px;fill:#606060;" y="364" opacity="1">16-Jan</text><text x="224.78947368421055" text-anchor="middle" style="width:21px;color:#606060;cursor:default;font-size:11px;fill:#606060;" y="364" opacity="1">17-Jan</text><text x="266.15789473684214" text-anchor="middle" style="width:21px;color:#606060;cursor:default;font-size:11px;fill:#606060;" y="364" opacity="1">18-Jan</text><text x="307.5263157894737" text-anchor="middle" style="width:21px;color:#606060;cursor:default;font-size:11px;fill:#606060;" y="364" opacity="1">19-Jan</text><text x="348.89473684210526" text-anchor="middle" style="width:21px;color:#606060;cursor:default;font-size:11px;fill:#606060;" y="364" opacity="1">20-Jan</text><text x="390.2631578947369" text-anchor="middle" style="width:21px;color:#606060;cursor:default;font-size:11px;fill:#606060;" y="364" opacity="1">21-Jan</text><text x="431.63157894736844" text-anchor="middle" style="width:21px;color:#606060;cursor:default;font-size:11px;fill:#606060;" y="364" opacity="1">22-Jan</text><text x="473.00000000000006" text-anchor="middle" style="width:21px;color:#606060;cursor:default;font-size:11px;fill:#606060;" y="364" opacity="1">23-Jan</text><text x="514.3684210526316" text-anchor="middle" style="width:21px;color:#606060;cursor:default;font-size:11px;fill:#606060;" y="364" opacity="1">24-Jan</text><text x="555.7368421052631" text-anchor="middle" style="width:21px;color:#606060;cursor:default;font-size:11px;fill:#606060;" y="364" opacity="1">25-Jan</text><text x="597.1052631578948" text-anchor="middle" style="width:21px;color:#606060;cursor:default;font-size:11px;fill:#606060;" y="364" opacity="1">26-Jan</text><text x="638.4736842105264" text-anchor="middle" style="width:21px;color:#606060;cursor:default;font-size:11px;fill:#606060;" y="364" opacity="1">27-Jan</text><text x="679.8421052631579" text-anchor="middle" style="width:21px;color:#606060;cursor:default;font-size:11px;fill:#606060;" y="364" opacity="1">28-Jan</text><text x="721.2105263157895" text-anchor="middle" style="width:21px;color:#606060;cursor:default;font-size:11px;fill:#606060;" y="364" opacity="1">29-Jan</text><text x="762.5789473684212" text-anchor="middle" style="width:21px;color:#606060;cursor:default;font-size:11px;fill:#606060;" y="364" opacity="1">30-Jan</text><text x="803.9473684210527" text-anchor="middle" style="width:21px;color:#606060;cursor:default;font-size:11px;fill:#606060;" y="364" opacity="1">31-Jan</text><text x="845.3157894736843" text-anchor="middle" style="width:21px;color:#606060;cursor:default;font-size:11px;fill:#606060;" y="364" opacity="1">01-Feb</text></g><g class="highcharts-axis-labels highcharts-yaxis-labels" zIndex="7"><text x="65" text-anchor="end" style="width:315px;color:#606060;cursor:default;font-size:11px;fill:#606060;" y="299.8333333333333" opacity="1">0</text><text x="65" text-anchor="end" style="width:315px;color:#606060;cursor:default;font-size:11px;fill:#606060;" y="101.16666666666669" opacity="1">1</text><text x="65" text-anchor="end" style="width:315px;color:#606060;cursor:default;font-size:11px;fill:#606060;" y="349.5" opacity="1">-0.25</text><text x="65" text-anchor="end" style="width:315px;color:#606060;cursor:default;font-size:11px;fill:#606060;" y="250.16666666666669" opacity="1">0.25</text><text x="65" text-anchor="end" style="width:315px;color:#606060;cursor:default;font-size:11px;fill:#606060;" y="200.5" opacity="1">0.5</text><text x="65" text-anchor="end" style="width:315px;color:#606060;cursor:default;font-size:11px;fill:#606060;" y="150.83333333333334" opacity="1">0.75</text><text x="65" text-anchor="end" style="width:315px;color:#606060;cursor:default;font-size:11px;fill:#606060;" y="51.5" opacity="1">1.25</text></g><g class="highcharts-tooltip" zIndex="8" style="cursor:default;padding:0;white-space:nowrap;" transform="translate(551,-9999)" opacity="0" visibility="visible"><path fill="none" d="M 3.5 0.5 L 171.5 0.5 C 174.5 0.5 174.5 0.5 174.5 3.5 L 174.5 41.5 C 174.5 44.5 174.5 44.5 171.5 44.5 L 93.5 44.5 87.5 50.5 81.5 44.5 3.5 44.5 C 0.5 44.5 0.5 44.5 0.5 41.5 L 0.5 3.5 C 0.5 0.5 0.5 0.5 3.5 0.5" isShadow="true" stroke="black" stroke-opacity="0.049999999999999996" stroke-width="5" transform="translate(1, 1)" width="174" height="44"></path><path fill="none" d="M 3.5 0.5 L 171.5 0.5 C 174.5 0.5 174.5 0.5 174.5 3.5 L 174.5 41.5 C 174.5 44.5 174.5 44.5 171.5 44.5 L 93.5 44.5 87.5 50.5 81.5 44.5 3.5 44.5 C 0.5 44.5 0.5 44.5 0.5 41.5 L 0.5 3.5 C 0.5 0.5 0.5 0.5 3.5 0.5" isShadow="true" stroke="black" stroke-opacity="0.09999999999999999" stroke-width="3" transform="translate(1, 1)" width="174" height="44"></path><path fill="none" d="M 3.5 0.5 L 171.5 0.5 C 174.5 0.5 174.5 0.5 174.5 3.5 L 174.5 41.5 C 174.5 44.5 174.5 44.5 171.5 44.5 L 93.5 44.5 87.5 50.5 81.5 44.5 3.5 44.5 C 0.5 44.5 0.5 44.5 0.5 41.5 L 0.5 3.5 C 0.5 0.5 0.5 0.5 3.5 0.5" isShadow="true" stroke="black" stroke-opacity="0.15" stroke-width="1" transform="translate(1, 1)" width="174" height="44"></path><path fill="rgba(249, 249, 249, .85)" d="M 3.5 0.5 L 171.5 0.5 C 174.5 0.5 174.5 0.5 174.5 3.5 L 174.5 41.5 C 174.5 44.5 174.5 44.5 171.5 44.5 L 93.5 44.5 87.5 50.5 81.5 44.5 3.5 44.5 C 0.5 44.5 0.5 44.5 0.5 41.5 L 0.5 3.5 C 0.5 0.5 0.5 0.5 3.5 0.5" stroke="#7cb5ec" stroke-width="1"></path><text x="8" zIndex="1" style="font-size:12px;color:#333333;fill:#333333;" y="21"><tspan style="font-size: 10px">27-Jan</tspan><tspan style="fill:#7cb5ec" x="8" dy="16">●</tspan><tspan dx="0"> PHP Basic: </tspan><tspan style="font-weight:bold" dx="0">0 câu hỏi mới</tspan></text></g></svg>