<svg version="1.1" style="font-family:&quot;Lucida Grande&quot;, &quot;Lucida Sans Unicode&quot;, Arial, Helvetica, sans-serif;font-size:12px;" xmlns="http://www.w3.org/2000/svg" width="1049" height="380"><desc>Created with Highcharts 4.0.4</desc><defs><clipPath id="highcharts-5"><rect x="0" y="0" width="965" height="258"></rect></clipPath></defs><rect x="0" y="0" width="1049" height="380" strokeWidth="0" fill="#FFFFFF" class=" highcharts-background"></rect><g class="highcharts-grid" zIndex="1"></g><g class="highcharts-grid" zIndex="1"><path fill="none" d="M 74 46.5 L 1039 46.5" stroke="#C0C0C0" stroke-width="1" zIndex="1" opacity="1"></path><path fill="none" d="M 74 99.5 L 1039 99.5" stroke="#C0C0C0" stroke-width="1" zIndex="1" opacity="1"></path><path fill="none" d="M 74 150.5 L 1039 150.5" stroke="#C0C0C0" stroke-width="1" zIndex="1" opacity="1"></path><path fill="none" d="M 74 202.5 L 1039 202.5" stroke="#C0C0C0" stroke-width="1" zIndex="1" opacity="1"></path><path fill="none" d="M 74 253.5 L 1039 253.5" stroke="#C0C0C0" stroke-width="1" zIndex="1" opacity="1"></path><path fill="none" d="M 74 305.5 L 1039 305.5" stroke="#C0C0C0" stroke-width="1" zIndex="1" opacity="1"></path></g><g class="highcharts-axis" zIndex="2"><path fill="none" d="M 1039.5 305 L 1039.5 315" stroke="#C0D0E0" stroke-width="1" opacity="1"></path><path fill="none" d="M 556.5 305 L 556.5 315" stroke="#C0D0E0" stroke-width="1" opacity="1"></path><path fill="none" d="M 73.5 305 L 73.5 315" stroke="#C0D0E0" stroke-width="1" opacity="1"></path><path fill="none" d="M 74 305.5 L 1039 305.5" stroke="#C0D0E0" stroke-width="1" zIndex="7" visibility="visible"></path></g><g class="highcharts-axis" zIndex="2"><text x="24.015625" zIndex="7" text-anchor="middle" transform="translate(0,0) rotate(270 24.015625 176)" class=" highcharts-yaxis-title" style="color:#707070;font-family:DejaVuSans;font-size:12px;fill:#707070;" visibility="visible" y="176"><tspan>Số lượng</tspan></text></g><g class="highcharts-series-group" zIndex="3"><g class="highcharts-series highcharts-tracker" visibility="visible" zIndex="0.1" transform="translate(74,47) scale(1 1)" style="" clip-path="url(#highcharts-5)"><rect x="110.5" y="196.5" width="116" height="62" fill="#7cb5ec" rx="0" ry="0" stroke="#FFFFFF" stroke-width="1"></rect><rect x="592.5" y="217.5" width="116" height="41" fill="#7cb5ec" rx="0" ry="0" stroke="#FFFFFF" stroke-width="1"></rect></g><g class="highcharts-markers" visibility="visible" zIndex="0.1" transform="translate(74,47) scale(1 1)" clip-path="none"></g><g class="highcharts-series highcharts-tracker" visibility="visible" zIndex="0.1" transform="translate(74,47) scale(1 1)" style="" clip-path="url(#highcharts-5)"><rect x="255.5" y="31.5" width="116" height="227" fill="#434348" rx="0" ry="0" stroke="#FFFFFF" stroke-width="1"></rect><rect x="737.5" y="217.5" width="116" height="41" fill="#434348" rx="0" ry="0" stroke="#FFFFFF" stroke-width="1"></rect></g><g class="highcharts-markers" visibility="visible" zIndex="0.1" transform="translate(74,47) scale(1 1)" clip-path="none"></g></g><text x="525" text-anchor="middle" class="highcharts-title" zIndex="4" style="color:#333333;font-size:18px;font-family:DejaVuSans;fill:#333333;width:985px;" y="25"><tspan>So sánh câu hỏi &amp; câu trả lời của 2 chủ đề</tspan></text><g class="highcharts-legend" zIndex="7" transform="translate(448,347)"><g zIndex="1"><g><g class="highcharts-legend-item" zIndex="1" transform="translate(8,3)"><text x="21" style="color:#333333;font-size:12px;font-weight:bold;cursor:pointer;font-family:DejaVuSans;fill:#333333;" text-anchor="start" zIndex="2" y="15"><tspan>Trả lời</tspan></text><rect x="0" y="4" width="16" height="12" zIndex="3" fill="#434348"></rect></g><g class="highcharts-legend-item" zIndex="1" transform="translate(86.8125,3)"><text x="21" y="15" style="color:#333333;font-size:12px;font-weight:bold;cursor:pointer;font-family:DejaVuSans;fill:#333333;" text-anchor="start" zIndex="2"><tspan>Câu hỏi</tspan></text><rect x="0" y="4" width="16" height="12" zIndex="3" fill="#7cb5ec"></rect></g></g></g></g><g class="highcharts-axis-labels highcharts-xaxis-labels" zIndex="7"><text x="315.25" text-anchor="middle" style="width:463px;color:#606060;cursor:default;font-size:12px;font-family:DejaVuSans;fill:#606060;" y="326" opacity="1"><tspan>PHP Căn Bản</tspan></text><text x="797.75" text-anchor="middle" style="width:463px;color:#606060;cursor:default;font-size:12px;font-family:DejaVuSans;fill:#606060;" y="326" opacity="1"><tspan>HTML Căn bản</tspan></text></g><g class="highcharts-axis-labels highcharts-yaxis-labels" zIndex="7"><text x="59" text-anchor="end" style="width:326px;color:#606060;cursor:default;font-size:11px;fill:#606060;" y="310.25" opacity="1">0</text><text x="59" text-anchor="end" style="width:326px;color:#606060;cursor:default;font-size:11px;fill:#606060;" y="258.65" opacity="1">2.5</text><text x="59" text-anchor="end" style="width:326px;color:#606060;cursor:default;font-size:11px;fill:#606060;" y="207.05" opacity="1">5</text><text x="59" text-anchor="end" style="width:326px;color:#606060;cursor:default;font-size:11px;fill:#606060;" y="155.45" opacity="1">7.5</text><text x="59" text-anchor="end" style="width:326px;color:#606060;cursor:default;font-size:11px;fill:#606060;" y="103.85" opacity="1">10</text><text x="59" text-anchor="end" style="width:326px;color:#606060;cursor:default;font-size:11px;fill:#606060;" y="52.25" opacity="1">12.5</text></g><g class="highcharts-tooltip" zIndex="8" style="cursor:default;padding:0;white-space:nowrap;" transform="translate(0,-9999)"><path fill="none" d="M 3 0 L 13 0 C 16 0 16 0 16 3 L 16 13 C 16 16 16 16 13 16 L 3 16 C 0 16 0 16 0 13 L 0 3 C 0 0 0 0 3 0" isShadow="true" stroke="black" stroke-opacity="0.049999999999999996" stroke-width="5" transform="translate(1, 1)"></path><path fill="none" d="M 3 0 L 13 0 C 16 0 16 0 16 3 L 16 13 C 16 16 16 16 13 16 L 3 16 C 0 16 0 16 0 13 L 0 3 C 0 0 0 0 3 0" isShadow="true" stroke="black" stroke-opacity="0.09999999999999999" stroke-width="3" transform="translate(1, 1)"></path><path fill="none" d="M 3 0 L 13 0 C 16 0 16 0 16 3 L 16 13 C 16 16 16 16 13 16 L 3 16 C 0 16 0 16 0 13 L 0 3 C 0 0 0 0 3 0" isShadow="true" stroke="black" stroke-opacity="0.15" stroke-width="1" transform="translate(1, 1)"></path><path fill="rgba(249, 249, 249, .85)" d="M 3 0 L 13 0 C 16 0 16 0 16 3 L 16 13 C 16 16 16 16 13 16 L 3 16 C 0 16 0 16 0 13 L 0 3 C 0 0 0 0 3 0"></path><text x="8" zIndex="1" style="font-size:12px;color:#333333;fill:#333333;" y="21"></text></g></svg>