<svg version="1.1" style="font-family:&quot;Lucida Grande&quot;, &quot;Lucida Sans Unicode&quot;, Arial, Helvetica, sans-serif;font-size:12px;" xmlns="http://www.w3.org/2000/svg" width="1049" height="380"><desc>Created with Highcharts 4.0.4</desc><defs><clipPath id="highcharts-11"><rect x="0" y="0" width="982" height="258"></rect></clipPath></defs><rect x="0" y="0" width="1049" height="380" strokeWidth="0" fill="#FFFFFF" class=" highcharts-background"></rect><g class="highcharts-grid" zIndex="1"></g><g class="highcharts-grid" zIndex="1"><path fill="none" d="M 57 46.5 L 1039 46.5" stroke="#C0C0C0" stroke-width="1" zIndex="1" opacity="1"></path><path fill="none" d="M 57 112.5 L 1039 112.5" stroke="#C0C0C0" stroke-width="1" zIndex="1" opacity="1"></path><path fill="none" d="M 57 176.5 L 1039 176.5" stroke="#C0C0C0" stroke-width="1" zIndex="1" opacity="1"></path><path fill="none" d="M 57 241.5 L 1039 241.5" stroke="#C0C0C0" stroke-width="1" zIndex="1" opacity="1"></path><path fill="none" d="M 57 305.5 L 1039 305.5" stroke="#C0C0C0" stroke-width="1" zIndex="1" opacity="1"></path></g><g class="highcharts-axis" zIndex="2"><path fill="none" d="M 449.5 305 L 449.5 315" stroke="#C0D0E0" stroke-width="1" opacity="1"></path><path fill="none" d="M 645.5 305 L 645.5 315" stroke="#C0D0E0" stroke-width="1" opacity="1"></path><path fill="none" d="M 842.5 305 L 842.5 315" stroke="#C0D0E0" stroke-width="1" opacity="1"></path><path fill="none" d="M 1039.5 305 L 1039.5 315" stroke="#C0D0E0" stroke-width="1" opacity="1"></path><path fill="none" d="M 252.5 305 L 252.5 315" stroke="#C0D0E0" stroke-width="1" opacity="1"></path><path fill="none" d="M 56.5 305 L 56.5 315" stroke="#C0D0E0" stroke-width="1" opacity="1"></path><path fill="none" d="M 57 305.5 L 1039 305.5" stroke="#C0D0E0" stroke-width="1" zIndex="7" visibility="visible"></path></g><g class="highcharts-axis" zIndex="2"><text x="25" zIndex="7" text-anchor="middle" transform="translate(0,0) rotate(270 25 176)" class=" highcharts-yaxis-title" style="color:#707070;font-family:DejaVuSans;font-size:12px;fill:#707070;" visibility="visible" y="176"><tspan>Số lượng</tspan></text></g><g class="highcharts-series-group" zIndex="3"><g class="highcharts-series highcharts-tracker" visibility="visible" zIndex="0.1" transform="translate(57,47) scale(1 1)" style="" clip-path="url(#highcharts-11)"><rect x="44.5" y="65.5" width="48" height="193" fill="#7cb5ec" rx="0" ry="0" stroke="#FFFFFF" stroke-width="1"></rect><rect x="241.5" y="129.5" width="48" height="129" fill="#7cb5ec" rx="0" ry="0" stroke="#FFFFFF" stroke-width="1"></rect><rect x="437.5" y="258.5" width="48" height="0" fill="#7cb5ec" rx="0" ry="0" stroke="#FFFFFF" stroke-width="1"></rect><rect x="633.5" y="258.5" width="48" height="0" fill="#7cb5ec" rx="0" ry="0" stroke="#FFFFFF" stroke-width="1"></rect><rect x="830.5" y="258.5" width="48" height="0" fill="#7cb5ec" rx="0" ry="0" stroke="#FFFFFF" stroke-width="1"></rect></g><g class="highcharts-markers" visibility="visible" zIndex="0.1" transform="translate(57,47) scale(1 1)" clip-path="none"></g><g class="highcharts-series highcharts-tracker" visibility="visible" zIndex="0.1" transform="translate(57,47) scale(1 1)" style="" clip-path="url(#highcharts-11)"><rect x="103.5" y="129.5" width="48" height="129" fill="#434348" rx="0" ry="0" stroke="#FFFFFF" stroke-width="1"></rect><rect x="299.5" y="194.5" width="48" height="64" fill="#434348" rx="0" ry="0" stroke="#FFFFFF" stroke-width="1"></rect><rect x="496.5" y="258.5" width="48" height="0" fill="#434348" rx="0" ry="0" stroke="#FFFFFF" stroke-width="1"></rect><rect x="692.5" y="258.5" width="48" height="0" fill="#434348" rx="0" ry="0" stroke="#FFFFFF" stroke-width="1"></rect><rect x="889.5" y="258.5" width="48" height="0" fill="#434348" rx="0" ry="0" stroke="#FFFFFF" stroke-width="1"></rect></g><g class="highcharts-markers" visibility="visible" zIndex="0.1" transform="translate(57,47) scale(1 1)" clip-path="none"></g></g><text x="525" text-anchor="middle" class="highcharts-title" zIndex="4" style="color:#333333;font-size:18px;font-family:DejaVuSans;fill:#333333;width:985px;" y="25"><tspan>Thống kê câu hỏi &amp; câu trả lời theo chủ đề</tspan></text><g class="highcharts-legend" zIndex="7" transform="translate(448,347)"><g zIndex="1"><g><g class="highcharts-legend-item" zIndex="1" transform="translate(8,3)"><text x="21" style="color:#333333;font-size:12px;font-weight:bold;cursor:pointer;font-family:DejaVuSans;fill:#333333;" text-anchor="start" zIndex="2" y="15"><tspan>Trả lời</tspan></text><rect x="0" y="4" width="16" height="12" zIndex="3" fill="#434348"></rect></g><g class="highcharts-legend-item" zIndex="1" transform="translate(86.8125,3)"><text x="21" y="15" style="color:#333333;font-size:12px;font-weight:bold;cursor:pointer;font-family:DejaVuSans;fill:#333333;" text-anchor="start" zIndex="2"><tspan>Câu hỏi</tspan></text><rect x="0" y="4" width="16" height="12" zIndex="3" fill="#7cb5ec"></rect></g></g></g></g><g class="highcharts-axis-labels highcharts-xaxis-labels" zIndex="7"><text x="155.2" text-anchor="middle" style="width:174px;color:#606060;cursor:default;font-size:12px;font-family:DejaVuSans;fill:#606060;" y="326" opacity="1"><tspan>PHP Căn Bản</tspan></text><text x="351.6" text-anchor="middle" style="width:174px;color:#606060;cursor:default;font-size:12px;font-family:DejaVuSans;fill:#606060;" y="326" opacity="1"><tspan>PHP Framework</tspan></text><text x="548" text-anchor="middle" style="width:174px;color:#606060;cursor:default;font-size:12px;font-family:DejaVuSans;fill:#606060;" y="326" opacity="1"><tspan>Zend Framework</tspan></text><text x="744.4" text-anchor="middle" style="width:174px;color:#606060;cursor:default;font-size:12px;font-family:DejaVuSans;fill:#606060;" y="326" opacity="1"><tspan>HTML Căn bản</tspan></text><text x="940.8" text-anchor="middle" style="width:174px;color:#606060;cursor:default;font-size:12px;font-family:DejaVuSans;fill:#606060;" y="326" opacity="1">CSS3</text></g><g class="highcharts-axis-labels highcharts-yaxis-labels" zIndex="7"><text x="42" text-anchor="end" style="width:326px;color:#606060;cursor:default;font-size:11px;fill:#606060;" y="310.25" opacity="1">0</text><text x="42" text-anchor="end" style="width:326px;color:#606060;cursor:default;font-size:11px;fill:#606060;" y="245.75" opacity="1">1</text><text x="42" text-anchor="end" style="width:326px;color:#606060;cursor:default;font-size:11px;fill:#606060;" y="181.25" opacity="1">2</text><text x="42" text-anchor="end" style="width:326px;color:#606060;cursor:default;font-size:11px;fill:#606060;" y="116.75" opacity="1">3</text><text x="42" text-anchor="end" style="width:326px;color:#606060;cursor:default;font-size:11px;fill:#606060;" y="52.25" opacity="1">4</text></g><g class="highcharts-tooltip" zIndex="8" style="cursor:default;padding:0;white-space:nowrap;" transform="translate(0,-9999)"><path fill="none" d="M 3 0 L 13 0 C 16 0 16 0 16 3 L 16 13 C 16 16 16 16 13 16 L 3 16 C 0 16 0 16 0 13 L 0 3 C 0 0 0 0 3 0" isShadow="true" stroke="black" stroke-opacity="0.049999999999999996" stroke-width="5" transform="translate(1, 1)"></path><path fill="none" d="M 3 0 L 13 0 C 16 0 16 0 16 3 L 16 13 C 16 16 16 16 13 16 L 3 16 C 0 16 0 16 0 13 L 0 3 C 0 0 0 0 3 0" isShadow="true" stroke="black" stroke-opacity="0.09999999999999999" stroke-width="3" transform="translate(1, 1)"></path><path fill="none" d="M 3 0 L 13 0 C 16 0 16 0 16 3 L 16 13 C 16 16 16 16 13 16 L 3 16 C 0 16 0 16 0 13 L 0 3 C 0 0 0 0 3 0" isShadow="true" stroke="black" stroke-opacity="0.15" stroke-width="1" transform="translate(1, 1)"></path><path fill="rgba(249, 249, 249, .85)" d="M 3 0 L 13 0 C 16 0 16 0 16 3 L 16 13 C 16 16 16 16 13 16 L 3 16 C 0 16 0 16 0 13 L 0 3 C 0 0 0 0 3 0"></path><text x="8" zIndex="1" style="font-size:12px;color:#333333;fill:#333333;" y="21"></text></g></svg>